<?xml version="1.0" standalone="no"?>
<!DOCTYPE svg PUBLIC "-//W3C//DTD SVG 20010904//EN"
 "http://www.w3.org/TR/2001/REC-SVG-20010904/DTD/svg10.dtd">
<svg version="1.0" xmlns="http://www.w3.org/2000/svg"
 width="1742.000000pt" height="980.000000pt" viewBox="0 0 1742.000000 980.000000"
 preserveAspectRatio="xMidYMid meet">

<g transform="translate(0.000000,980.000000) scale(0.100000,-0.100000)"
fill="#000000" stroke="none">
<path d="M17173 6973 c-7 -18 -19 -33 -27 -33 -10 0 -13 -6 -9 -17 5 -12 3
-14 -7 -8 -10 6 -12 4 -7 -8 4 -10 1 -17 -5 -17 -9 0 -9 -3 0 -12 19 -19 14
-26 -15 -21 l-28 4 25 -15 25 -15 -30 -1 -30 0 25 -21 25 -21 -38 6 c-33 4
-37 3 -27 -9 10 -12 10 -15 -1 -15 -8 0 0 -9 16 -21 l30 -21 -37 7 c-21 3 -38
2 -38 -2 0 -4 24 -21 53 -38 57 -32 48 -42 -24 -26 -24 5 -45 8 -47 6 -3 -2
13 -14 34 -27 37 -22 37 -23 14 -28 -24 -6 -24 -6 8 -19 17 -7 29 -17 27 -21
-3 -5 3 -11 12 -14 10 -3 -22 -4 -72 -2 -81 2 -87 1 -60 -10 17 -7 38 -13 48
-14 9 0 17 -4 17 -10 0 -5 -15 -7 -32 -4 -25 3 -19 -1 22 -18 36 -15 49 -24
36 -26 -19 -4 -132 33 -154 51 -7 5 -15 7 -18 4 -7 -7 44 -61 66 -70 13 -5 13
-7 0 -16 -13 -9 -13 -11 1 -11 9 0 22 -7 29 -15 10 -12 9 -15 -8 -15 -11 0
-39 7 -62 15 -24 8 -45 13 -48 11 -2 -3 17 -19 44 -36 50 -31 102 -50 142 -50
12 0 22 -4 22 -10 0 -15 -122 -17 -210 -5 -35 5 -35 5 -10 -9 14 -9 33 -15 43
-16 9 0 17 -4 17 -10 0 -5 -8 -10 -17 -11 -44 -2 39 -17 107 -19 68 -2 72 -3
40 -12 -61 -18 -66 -22 -27 -26 20 -2 37 -8 37 -14 0 -12 -84 -2 -112 13 -37
20 -40 7 -5 -18 48 -34 37 -39 -43 -18 -34 9 -64 14 -66 12 -7 -7 72 -57 122
-78 l49 -20 -59 7 c-45 4 -56 3 -51 -7 8 -12 -9 -10 -62 7 -13 4 -12 0 7 -17
l25 -22 -40 9 c-22 4 -64 7 -92 6 -31 -1 -53 2 -53 8 0 5 4 10 10 10 5 0 7 6
4 13 -3 10 5 14 27 15 51 1 56 25 9 35 -22 5 -40 12 -40 18 0 5 -6 9 -14 9 -7
0 -19 7 -27 16 -11 13 -11 15 2 13 21 -5 69 10 69 21 0 5 -17 14 -37 20 -21 5
-43 13 -48 17 -15 11 -16 53 -2 53 7 0 6 4 -3 10 -12 8 -13 12 -2 19 10 6 8
10 -10 15 -14 4 -18 9 -10 13 17 7 15 24 -3 17 -20 -8 -19 6 3 23 16 14 16 14
0 9 -13 -4 -18 0 -18 14 0 10 -4 22 -10 25 -9 5 -14 -16 -13 -52 1 -7 -5 -13
-13 -13 -8 0 -14 -4 -14 -10 0 -5 5 -10 10 -10 6 0 10 -4 10 -10 0 -5 -7 -10
-15 -10 -8 0 -15 -4 -15 -10 0 -5 -7 -10 -16 -10 -8 0 -13 -4 -10 -9 4 -5 0
-12 -6 -14 -7 -3 1 -6 17 -7 l30 -1 -23 -19 c-20 -17 -21 -19 -5 -23 14 -3 12
-7 -12 -17 l-30 -14 29 -4 29 -4 -24 -12 c-14 -7 -23 -19 -21 -29 2 -11 -4
-17 -18 -17 -17 0 -19 -3 -10 -19 8 -16 6 -20 -13 -23 -20 -4 -18 -6 13 -20
l35 -16 -51 -1 c-49 -1 -51 -2 -46 -26 3 -18 11 -25 28 -25 27 0 28 -3 14 -31
-6 -10 -21 -19 -33 -20 -12 0 -31 -4 -42 -9 -16 -6 -8 -9 33 -15 62 -9 67 -21
12 -30 -24 -4 -38 -11 -34 -17 5 -7 -8 -8 -40 -4 -46 7 -47 7 -34 -13 7 -12
16 -21 21 -21 4 0 5 -4 2 -10 -5 -9 16 -14 53 -13 6 1 12 -6 12 -14 0 -8 5
-11 13 -7 9 5 9 4 1 -6 -14 -14 -41 -16 -114 -5 l-55 8 19 -22 c14 -15 15 -21
6 -21 -9 0 -7 -5 6 -15 19 -14 19 -14 -1 -15 -18 -1 -17 -3 5 -13 14 -6 28
-16 31 -21 4 -5 20 -4 40 3 18 6 34 9 37 7 9 -10 -10 -26 -32 -26 -12 0 -27
-5 -33 -11 -7 -7 -38 -13 -70 -15 -32 -1 -71 -9 -86 -17 l-29 -15 31 -7 c17
-4 31 -11 31 -16 0 -5 11 -9 24 -9 23 0 41 -22 29 -34 -12 -12 -189 22 -225
43 -40 22 -35 30 15 24 39 -5 41 -4 22 10 -19 14 -17 15 28 22 73 11 66 25
-12 25 -38 0 -73 5 -76 10 -4 6 6 10 22 11 15 0 46 6 68 13 l40 12 -76 7 c-82
7 -129 20 -129 36 0 6 20 8 50 4 58 -7 64 1 18 21 l-33 14 55 2 c51 1 53 2 31
14 -15 8 -19 15 -11 18 7 2 -6 13 -29 23 -22 11 -39 25 -37 32 3 6 0 14 -7 16
-9 3 -9 8 1 18 23 25 12 30 -18 9 -33 -24 -42 -9 -15 26 20 27 20 51 0 34 -13
-11 -15 -8 -15 16 0 16 -5 36 -10 44 -7 11 -10 4 -10 -27 0 -25 -5 -43 -11
-43 -8 0 -8 -4 -2 -12 6 -7 13 -26 17 -42 6 -25 5 -28 -11 -21 -10 4 -25 9
-33 13 -8 3 -5 -6 9 -21 14 -15 22 -30 19 -33 -4 -3 -30 -9 -60 -14 -29 -5
-71 -13 -93 -18 -40 -10 -40 -10 -7 -11 33 -1 46 -20 15 -22 -20 -1 -12 -4 30
-13 15 -4 25 -11 22 -16 -3 -6 1 -10 10 -10 25 0 7 -19 -28 -29 -32 -9 -32 -9
-4 -10 43 -2 31 -19 -18 -27 -25 -3 -48 -11 -52 -17 -4 -7 8 -8 35 -4 39 5 57
-5 30 -16 -7 -3 7 -6 32 -7 l45 -2 -50 -18 c-27 -10 -68 -19 -90 -20 -34 -2
-36 -3 -15 -9 24 -7 24 -7 5 -19 -17 -10 -11 -12 38 -9 70 4 78 -15 13 -32
-55 -13 -66 -14 -46 -1 11 7 -4 10 -48 10 -37 0 -61 4 -57 9 3 6 -3 10 -12 10
-26 0 -91 19 -70 20 10 1 16 5 13 10 -4 5 0 11 6 14 7 2 0 8 -17 12 -42 11
-49 16 -34 26 11 7 9 9 -6 9 -23 0 -52 16 -44 24 3 3 20 2 37 -3 19 -6 32 -6
32 0 0 5 8 8 18 7 60 -5 87 16 35 28 -100 22 -108 25 -88 36 10 6 31 11 46 10
15 0 30 6 33 14 4 10 -3 14 -29 14 -19 0 -35 4 -35 9 0 5 -13 11 -30 15 -27 5
-43 26 -20 26 5 0 7 7 4 15 -4 11 1 15 17 15 24 1 23 1 -6 25 -25 21 -28 27
-15 35 13 8 13 10 -2 10 -11 0 -15 5 -12 15 4 10 0 15 -12 15 -17 0 -16 1 2
15 15 12 15 14 2 9 -13 -4 -19 2 -27 28 -7 24 -9 27 -10 11 -1 -12 -6 -25 -12
-28 -6 -4 -8 -13 -5 -21 3 -8 -1 -14 -11 -14 -12 0 -13 -3 -4 -13 14 -17 5
-27 -28 -28 -17 -1 -20 -3 -8 -6 24 -6 21 -23 -4 -23 -12 0 -19 -5 -16 -12 2
-7 11 -13 20 -13 24 0 32 -14 13 -21 -14 -5 -15 -9 -4 -15 9 -6 6 -9 -10 -9
-12 0 -25 -7 -28 -15 -4 -8 -15 -15 -25 -15 -12 0 -16 -5 -13 -15 4 -9 0 -15
-10 -15 -24 0 -19 -17 7 -25 21 -6 21 -7 -8 -20 -16 -8 -48 -14 -70 -15 l-39
0 20 -20 c14 -15 34 -21 69 -22 40 0 46 -3 33 -12 -25 -18 -6 -40 28 -33 l29
6 -30 -13 c-16 -8 -60 -17 -97 -21 -38 -3 -68 -9 -68 -13 0 -4 9 -14 20 -22
25 -18 9 -30 -39 -30 -29 0 -32 -2 -21 -15 10 -12 10 -15 -1 -16 -14 -1 38
-14 98 -25 17 -3 41 0 52 6 13 7 21 7 21 1 0 -15 -31 -29 -90 -42 l-52 -11 28
-19 29 -19 -54 0 c-46 0 -52 2 -41 15 11 13 8 15 -19 15 -17 0 -31 5 -31 10 0
6 5 10 10 10 6 0 10 5 10 10 0 6 -10 10 -22 10 -19 0 -20 2 -8 10 10 6 11 10
3 10 -7 0 -13 5 -13 10 0 6 7 10 15 10 8 0 15 5 15 10 0 6 -9 10 -21 10 -15 0
-19 5 -15 15 3 8 0 15 -7 15 -7 0 -4 5 6 11 9 5 17 17 17 24 0 8 -8 15 -17 15
-14 0 -15 2 -4 9 11 7 10 10 -4 18 -13 7 -14 12 -6 18 9 5 7 11 -6 21 -17 13
-17 13 2 14 12 0 16 3 9 8 -16 10 -37 80 -30 98 3 8 0 25 -6 39 -11 24 -11 25
-25 5 -8 -11 -12 -24 -8 -29 3 -5 0 -13 -6 -17 -8 -5 -8 -8 0 -14 8 -5 9 -14
2 -32 -5 -14 -8 -37 -7 -52 2 -16 -2 -26 -9 -26 -17 0 -27 -28 -13 -36 7 -5 2
-11 -13 -17 -24 -10 -24 -11 -2 -14 26 -5 28 -43 1 -43 -9 0 -20 -4 -23 -10
-3 -5 3 -10 14 -10 32 0 33 -17 2 -30 -28 -11 -36 -38 -16 -52 6 -4 2 -8 -7
-8 -27 0 -22 -15 10 -27 26 -10 25 -11 -18 -13 l-45 -2 37 -17 c34 -16 35 -18
17 -29 -10 -7 -36 -13 -56 -13 -21 -1 -30 -3 -20 -6 12 -3 16 -10 12 -24 -5
-15 -1 -19 17 -19 l23 -1 -24 -13 -23 -13 31 -6 c17 -4 31 -11 31 -16 0 -11
-55 -31 -86 -31 -13 0 -24 -4 -24 -9 0 -12 26 -21 63 -21 18 0 39 -5 47 -11
11 -7 -6 -9 -62 -7 -42 2 -74 0 -72 -3 6 -10 -23 -19 -62 -19 -19 0 -34 5 -34
11 0 5 -5 7 -11 3 -17 -10 -78 -14 -83 -5 -3 4 11 15 30 26 40 21 46 39 8 25
-31 -12 -94 -13 -94 -2 0 5 12 14 27 21 28 13 73 51 73 63 0 4 -24 -4 -52 -17
-61 -28 -93 -34 -62 -10 18 14 17 14 -13 15 -49 0 -40 13 23 35 58 19 78 35
47 35 -14 1 -13 4 7 15 19 11 21 14 8 15 -11 0 -15 5 -12 15 5 13 2 14 -21 5
-35 -13 -40 -13 -25 5 10 13 9 15 -10 15 -22 0 -22 1 -7 18 23 25 21 31 -5 25
-22 -6 -22 -6 2 16 l25 21 -40 -6 -40 -7 25 22 25 22 -25 -7 c-24 -6 -24 -6
-9 12 19 22 15 46 -6 38 -10 -4 -12 0 -8 15 3 12 1 21 -6 21 -6 0 -11 12 -11
28 -1 25 -1 26 -12 7 -6 -11 -20 -28 -30 -39 -11 -10 -18 -26 -15 -37 3 -12 0
-19 -10 -19 -8 0 -11 -4 -8 -10 3 -5 1 -10 -6 -10 -8 0 -7 -5 2 -16 12 -15 11
-16 -10 -9 -22 7 -23 5 -17 -19 5 -21 3 -26 -11 -26 -12 -1 -4 -10 22 -26 l40
-26 -45 6 -45 6 25 -20 c17 -13 20 -20 10 -20 -10 0 -8 -6 9 -19 19 -15 21
-19 8 -24 -9 -3 -33 -4 -54 -1 l-38 4 35 -14 c26 -11 30 -15 15 -16 -16 -1
-14 -4 10 -15 23 -11 25 -14 10 -14 -11 0 -40 8 -64 19 -57 26 -60 25 -26 -10
16 -16 25 -30 20 -30 -5 0 0 -7 11 -16 18 -15 18 -15 -8 -10 -14 3 -34 9 -45
13 -16 6 -16 5 -4 -11 20 -24 65 -46 96 -46 14 0 25 -4 25 -10 0 -23 -65 -10
-97 20 -18 17 -37 30 -42 30 -9 0 -31 31 -31 44 0 3 6 6 14 6 8 0 13 8 12 18
-2 12 -15 19 -42 22 l-39 6 33 8 c30 7 45 26 21 26 -5 0 -8 4 -5 9 3 5 -1 14
-9 21 -14 12 -14 15 0 30 14 15 12 18 -24 28 -33 11 -38 15 -33 37 2 14 -3 40
-11 57 -8 18 -17 42 -19 53 -2 15 -9 8 -27 -30 -13 -27 -31 -55 -40 -62 -15
-11 -15 -12 2 -13 28 0 18 -27 -18 -48 -11 -6 -14 -12 -7 -12 6 0 12 -9 12
-21 0 -14 -10 -24 -30 -32 -16 -6 -30 -17 -30 -24 0 -7 6 -10 14 -7 8 3 17 1
21 -5 4 -7 -4 -11 -20 -11 -24 0 -26 -3 -21 -25 5 -20 3 -25 -14 -25 -22 0
-26 -10 -9 -27 16 -16 4 -30 -32 -38 -23 -5 -28 -10 -19 -20 6 -7 22 -16 35
-19 38 -10 30 -22 -25 -42 -27 -10 -50 -24 -50 -31 0 -14 -38 -16 -79 -4 l-23
6 26 14 c36 19 33 28 -13 41 -21 5 -44 16 -50 24 -9 11 -5 15 24 20 37 7 50
36 17 36 -26 0 -33 10 -21 31 8 17 6 19 -20 19 -23 0 -29 4 -25 15 3 8 9 14
12 13 58 -7 53 24 -5 42 l-48 14 35 14 35 15 -36 14 c-34 14 -37 18 -43 68 -3
29 -12 64 -20 79 l-13 27 -8 -33 c-5 -18 -8 -39 -8 -46 1 -7 -10 -18 -23 -24
-24 -11 -33 -28 -15 -28 14 0 9 -39 -5 -44 -6 -2 -10 -16 -9 -30 2 -18 -2 -26
-12 -26 -9 0 -13 -6 -9 -15 3 -8 0 -15 -7 -15 -7 0 -4 -7 6 -14 16 -13 10 -14
-50 -15 -37 0 -88 6 -113 13 -42 12 -43 14 -20 21 l25 8 -30 13 c-16 7 -25 14
-20 15 6 0 -1 5 -15 9 -23 7 -21 8 12 9 74 2 92 25 28 35 -44 7 -55 26 -15 26
37 0 30 15 -14 30 -28 9 -39 18 -38 31 1 11 8 19 17 19 12 1 10 4 -5 16 -11 8
-20 18 -21 22 0 4 -6 26 -14 50 l-13 42 -19 -31 c-10 -16 -16 -34 -13 -40 4
-5 -1 -9 -10 -9 -11 0 -15 -5 -11 -15 3 -9 0 -15 -9 -15 -8 0 -15 -4 -15 -10
0 -5 7 -10 15 -10 9 0 12 -6 9 -15 -4 -8 -10 -15 -16 -15 -12 0 -43 -30 -31
-30 4 0 -1 -6 -12 -12 -19 -11 -19 -11 0 -19 16 -5 11 -9 -27 -20 -37 -10 -45
-16 -36 -26 6 -7 23 -13 38 -13 24 0 27 -3 22 -25 -4 -22 -9 -25 -50 -25 -44
0 -45 0 -27 -20 19 -21 18 -21 -25 -24 -8 -1 -16 -9 -18 -19 -4 -17 8 -20 86
-20 44 0 41 -15 -5 -23 -40 -7 -78 -23 -55 -24 6 0 12 -4 12 -10 0 -5 -18 -10
-39 -10 -22 0 -43 5 -46 10 -3 6 1 10 9 10 8 0 18 5 22 11 4 8 0 9 -15 4 -12
-4 -21 -2 -21 4 0 6 3 11 8 11 4 0 7 13 8 29 1 22 -4 31 -20 36 -19 6 -19 7
-3 13 16 7 15 9 -5 26 -21 19 -22 20 -3 27 18 7 18 8 2 8 -10 1 -16 5 -13 9 3
5 -1 44 -9 88 -8 43 -14 81 -15 83 0 2 -7 -2 -15 -9 -8 -7 -15 -25 -15 -41 0
-15 -4 -39 -10 -53 -7 -19 -6 -26 3 -26 7 0 8 -3 2 -8 -5 -4 -12 -16 -13 -27
-2 -11 -9 -23 -14 -26 -6 -4 -3 -11 8 -18 11 -6 13 -11 6 -11 -7 0 -11 -4 -7
-9 3 -6 -3 -14 -12 -20 -10 -6 -13 -11 -7 -11 16 0 13 -30 -3 -30 -8 0 -11 -5
-8 -10 3 -6 -4 -14 -17 -20 l-23 -9 23 -7 c26 -8 29 -24 5 -24 -15 0 -15 -2
-4 -9 11 -7 6 -12 -20 -19 l-34 -10 39 -1 c47 -1 41 -11 -11 -21 l-38 -7 45
-21 45 -21 -37 0 c-21 -1 -38 -5 -38 -10 0 -5 -8 -12 -17 -14 -12 -3 -10 -5 7
-6 20 -1 22 -3 10 -11 -10 -6 -11 -10 -2 -10 6 0 12 -4 12 -8 0 -10 -86 1 -97
11 -3 4 0 14 8 24 12 15 12 16 -4 10 -22 -8 -34 17 -17 38 10 12 10 15 0 15
-8 0 -11 9 -8 25 3 14 1 25 -3 25 -5 0 -9 -9 -9 -20 0 -11 -5 -20 -11 -20 -6
0 -9 -6 -6 -12 22 -55 22 -55 -1 -34 -22 19 -22 19 -23 0 -1 -10 -1 -25 0 -31
1 -7 -2 -13 -7 -13 -4 0 -19 -10 -32 -22 l-25 -23 35 -6 c34 -6 34 -7 10 -15
-23 -8 -22 -9 15 -15 l40 -5 -28 -12 c-16 -7 -47 -12 -69 -12 -45 0 -44 -9 5
-27 31 -11 30 -12 -28 -13 -58 -1 -59 -1 -30 -14 17 -7 36 -11 43 -8 8 3 10
-1 6 -13 -6 -14 -3 -16 14 -10 12 3 22 2 22 -3 0 -14 -41 -30 -90 -36 -25 -3
-36 -2 -25 2 29 10 30 32 2 32 -33 0 -40 10 -20 32 15 17 14 18 -28 18 -24 0
-48 4 -54 8 -12 9 -18 55 -7 48 14 -8 83 14 77 25 -4 5 -12 9 -18 8 -20 -3
-67 12 -67 22 0 5 5 9 11 9 6 0 -8 19 -31 43 -32 32 -39 43 -26 45 20 4 21 22
0 22 -8 0 -13 4 -10 9 3 5 -1 11 -9 15 -8 3 -13 11 -10 18 2 7 -2 22 -10 32
-12 16 -17 17 -30 6 -8 -7 -13 -16 -10 -20 3 -5 -2 -16 -11 -24 -8 -9 -11 -16
-5 -16 6 0 11 -4 11 -10 0 -5 -7 -10 -16 -10 -11 0 -14 -5 -9 -17 16 -39 10
-48 -34 -59 -46 -11 -44 -19 7 -34 31 -9 21 -14 -43 -25 -36 -6 -38 -8 -21
-20 11 -9 36 -13 65 -10 38 3 42 2 26 -7 -11 -6 -22 -14 -25 -18 -3 -3 -13 -9
-22 -13 -21 -7 -24 -27 -5 -28 26 -1 -80 -29 -112 -29 l-35 0 23 -21 c12 -12
25 -18 28 -15 3 3 18 -1 33 -9 15 -8 41 -12 58 -10 42 5 40 0 -7 -24 -27 -14
-49 -18 -74 -14 -20 3 -43 3 -52 -1 -15 -5 -15 -8 -2 -21 9 -8 17 -20 19 -27
3 -7 25 -12 56 -13 28 -1 54 -4 57 -7 8 -8 -33 -32 -82 -48 -23 -7 -40 -17
-37 -21 3 -5 -4 -9 -15 -9 -12 0 -21 -5 -21 -11 0 -16 -155 -8 -172 9 -11 11
-10 15 5 23 9 6 17 18 17 27 0 15 -7 17 -37 15 -34 -3 -35 -2 -14 7 19 8 21
13 11 25 -7 8 -9 15 -4 15 5 0 1 5 -9 11 -13 8 -17 18 -13 35 4 16 2 24 -7 24
-14 0 -17 34 -4 46 12 12 8 22 -13 27 -17 4 -26 29 -21 60 0 4 -4 8 -9 9 -37
5 -38 5 -43 -86 -3 -35 -7 -41 -37 -51 -38 -13 -43 -28 -10 -33 11 -2 20 -6
20 -10 0 -9 -49 -32 -67 -32 -7 0 -13 -7 -13 -15 0 -9 10 -15 26 -15 14 0 23
-4 20 -9 -4 -5 0 -12 6 -14 7 -3 -2 -6 -20 -6 -29 -1 -31 -3 -23 -19 12 -22
-3 -42 -32 -42 -30 0 -9 -19 29 -26 33 -6 34 -7 18 -25 -9 -11 -23 -19 -31
-19 -8 0 -23 -5 -34 -10 -17 -10 -18 -13 -4 -26 22 -23 19 -31 -18 -38 -42 -8
-44 -32 -5 -40 38 -8 26 -29 -13 -24 -20 3 -29 0 -29 -9 0 -7 -10 -13 -22 -14
-22 0 -22 -1 -3 -9 18 -7 18 -9 -10 -20 -16 -6 -57 -22 -91 -36 -73 -29 -140
-39 -174 -26 -25 9 -25 9 10 17 37 7 125 54 117 61 -2 3 -16 0 -31 -6 -15 -5
-35 -10 -44 -10 -15 1 -15 3 2 15 11 8 16 15 12 15 -5 0 3 12 18 27 14 14 25
28 23 29 -2 2 -22 -5 -45 -16 -22 -11 -51 -20 -64 -19 -21 1 -20 2 7 14 24 11
26 14 10 15 -16 1 -14 4 10 15 l30 13 -53 1 c-48 1 -52 3 -38 16 8 8 21 15 28
15 11 0 11 2 0 9 -10 6 -7 13 15 29 l28 21 -35 -9 c-61 -17 -69 -6 -17 24 l32
19 -25 8 c-14 4 -19 7 -12 8 6 1 12 10 12 20 0 15 -5 18 -22 13 -21 -5 -22 -4
-9 11 9 12 10 17 2 17 -7 0 -9 5 -6 10 3 6 -1 10 -11 10 -14 0 -15 2 -3 17 10
11 10 14 2 9 -12 -6 -18 5 -14 27 0 4 -5 7 -12 7 -7 0 -18 12 -24 28 l-11 27
-1 -27 c-1 -16 -6 -28 -12 -28 -7 0 -9 -9 -6 -21 4 -15 2 -19 -9 -15 -18 7
-19 -25 -1 -43 10 -11 8 -13 -10 -8 -27 6 -29 -1 -5 -19 15 -12 13 -13 -17
-14 l-33 0 23 -20 24 -20 -30 6 -30 7 24 -27 24 -26 -24 0 c-20 0 -21 -2 -9
-11 11 -8 6 -9 -23 -5 -33 4 -37 3 -27 -9 10 -12 9 -15 -6 -15 -16 -1 -15 -3
5 -14 23 -13 23 -14 5 -18 -13 -3 1 -12 44 -27 34 -13 62 -27 62 -32 0 -4 -15
-9 -32 -11 l-33 -4 25 -11 25 -12 -25 0 c-14 0 -45 8 -69 19 -55 25 -56 25
-34 -5 10 -13 33 -29 51 -35 55 -19 38 -33 -33 -28 l-65 6 43 -31 c33 -24 38
-32 24 -35 -10 -2 -32 1 -49 7 -41 14 -49 4 -18 -21 l25 -21 -27 5 c-16 3 -28
2 -28 -2 0 -9 84 -50 102 -50 7 0 20 -5 28 -11 21 -15 -64 -4 -119 14 -52 18
-52 7 -1 -27 45 -30 51 -40 18 -31 -22 6 -22 6 2 -15 l25 -21 -25 6 c-14 4
-37 13 -52 20 -16 8 -28 10 -28 5 0 -5 12 -18 28 -30 l27 -21 -34 5 c-34 6
-34 6 -16 -14 20 -22 14 -26 -15 -10 -16 8 -18 7 -14 -4 3 -9 14 -18 25 -21
34 -11 20 -21 -45 -33 -84 -16 -113 -15 -120 3 -3 8 -1 15 4 15 6 0 10 7 10
15 0 8 -5 15 -11 15 -5 0 -7 4 -4 10 3 6 1 10 -5 10 -6 0 -10 6 -9 13 1 6 -5
28 -14 47 -9 19 -16 28 -17 19 0 -27 -32 -48 -57 -38 -34 12 -28 22 10 16 31
-5 32 -5 5 6 -32 12 -40 37 -18 54 13 11 13 12 0 13 -20 0 -47 43 -31 48 7 2
6 9 -4 19 -12 11 -13 19 -5 28 8 9 8 14 0 17 -11 3 -16 23 -26 98 -3 25 -8 48
-11 53 -9 14 -23 -5 -23 -31 -1 -54 -5 -82 -14 -82 -4 0 -6 -7 -2 -15 3 -8 0
-15 -6 -15 -7 0 -6 -5 2 -15 10 -12 9 -16 -4 -21 -15 -6 -15 -7 0 -19 15 -11
15 -12 -5 -18 -21 -5 -24 -28 -8 -54 6 -9 2 -13 -10 -14 -10 0 -13 -3 -5 -6
18 -7 14 -23 -6 -23 -14 0 -19 -8 -19 -30 0 -18 6 -30 14 -30 28 0 11 -19 -23
-26 -40 -7 -35 -20 11 -27 28 -4 27 -4 -7 -6 -20 0 -38 -6 -40 -12 -3 -9 -14
-9 -42 1 -32 10 -37 15 -32 35 4 14 1 25 -6 27 -15 5 -20 41 -6 49 6 4 1 14
-12 27 -12 11 -19 25 -16 30 3 6 0 24 -7 41 l-13 32 -12 -37 c-6 -21 -9 -41
-6 -46 3 -4 0 -8 -6 -8 -6 0 -8 -4 -5 -10 3 -6 -5 -10 -19 -10 -14 0 -28 5
-31 10 -3 6 -17 10 -30 10 -32 0 -41 28 -12 39 12 5 27 6 34 4 6 -3 10 3 9 13
-2 10 -21 24 -47 34 -46 18 -58 42 -25 48 11 2 26 10 34 18 11 12 11 14 -3 14
-9 0 -30 8 -48 17 -23 12 -28 18 -15 21 9 2 19 10 22 18 4 10 -2 14 -20 14
-21 0 -23 3 -14 19 14 28 13 31 -14 31 -14 0 -28 4 -31 10 -4 6 5 10 19 10 14
0 26 5 26 10 0 6 -6 10 -13 10 -7 0 -23 7 -35 16 -17 12 -20 19 -12 33 7 14 5
23 -10 36 -21 19 -27 45 -10 45 18 0 10 18 -10 23 -13 3 -18 10 -14 21 3 9 1
16 -5 16 -6 0 -10 3 -9 8 0 4 -4 18 -10 32 -7 16 -11 19 -11 9 -1 -9 -10 -36
-20 -60 -11 -23 -18 -51 -16 -61 3 -14 -5 -23 -32 -34 -26 -12 -33 -18 -24
-27 16 -16 14 -37 -4 -37 -9 0 -12 -6 -9 -15 4 -10 0 -15 -12 -15 -16 0 -17
-2 -4 -10 8 -5 27 -10 43 -10 42 0 32 -20 -10 -21 -21 -1 -42 -1 -47 0 -5 1
-6 -5 -2 -14 3 -9 6 -19 6 -21 0 -2 7 -4 15 -4 8 0 15 -4 15 -8 0 -11 -34 -42
-45 -42 -4 0 -18 -12 -31 -27 -22 -25 -22 -28 -6 -34 15 -5 14 -7 -5 -13 -23
-7 -76 14 -89 35 -4 7 0 17 9 24 23 17 22 21 -14 35 -23 10 -29 18 -26 32 3
10 1 33 -4 51 -5 18 -10 51 -10 75 -2 65 -26 73 -34 11 -11 -92 -16 -107 -38
-113 -12 -3 -23 -1 -25 4 -2 6 -11 10 -20 10 -9 0 -36 10 -59 22 -37 20 -44
21 -67 9 -13 -8 -34 -11 -45 -8 -12 3 -22 -1 -25 -9 -3 -8 -13 -14 -22 -14
-10 0 -14 -5 -11 -14 4 -10 -2 -16 -16 -18 -18 -2 -21 -9 -19 -32 3 -26 1 -28
-23 -24 -14 3 -27 2 -30 -2 -2 -4 -18 -5 -35 -2 -25 3 -28 7 -19 18 9 11 8 14
-7 15 -11 0 -14 3 -7 5 9 4 7 16 -6 47 -10 23 -16 48 -14 55 3 6 0 12 -6 12
-6 0 -11 7 -11 16 0 13 -3 14 -15 4 -9 -8 -13 -21 -9 -36 4 -13 1 -30 -5 -38
-6 -7 -9 -20 -5 -29 3 -10 -1 -17 -13 -20 -16 -4 -16 -5 0 -6 18 -1 25 -21 6
-21 -5 0 -7 -4 -4 -10 3 -5 -2 -10 -12 -10 -15 0 -15 -2 -4 -9 11 -7 7 -10
-15 -13 l-29 -4 25 -11 25 -11 -25 -10 c-15 -6 -19 -11 -10 -12 8 -1 4 -5 -10
-9 l-25 -8 28 -13 c29 -14 31 -36 3 -34 -21 2 -20 -5 2 -22 15 -12 14 -13 -11
-14 -19 0 -26 4 -21 12 4 6 3 8 -2 5 -6 -3 -16 -2 -24 3 -13 8 -12 12 5 25 19
15 19 15 -8 9 -22 -5 -26 -3 -21 10 4 11 0 16 -12 16 -18 1 -18 1 0 15 17 13
18 15 3 15 -23 0 -22 20 1 21 14 0 14 2 -3 9 -11 5 -15 9 -10 9 6 1 5 5 -2 9
-6 4 -14 27 -18 52 -4 25 -11 47 -16 48 -5 2 -10 13 -10 25 -1 18 -2 19 -6 4
-4 -15 -11 -17 -36 -11 -18 3 -35 12 -39 19 -4 7 -34 15 -67 19 -66 8 -93 26
-39 26 25 0 29 3 18 10 -12 8 -11 10 8 10 35 0 26 17 -15 27 l-38 9 48 13 c26
8 47 17 47 20 0 9 -72 41 -91 41 -8 0 -20 5 -27 12 -6 6 -22 13 -34 15 -28 4
-34 11 -21 24 8 8 13 8 17 0 11 -17 93 -14 100 4 4 11 -3 19 -22 26 -62 22
-82 32 -82 39 0 10 29 22 39 16 4 -3 12 4 19 15 10 16 9 19 -6 19 -10 0 -27 6
-38 14 -19 15 -19 15 1 30 20 14 19 15 -7 21 -23 6 -26 10 -17 26 5 10 7 20 4
20 -3 1 -9 3 -15 4 -5 1 -19 3 -30 4 -11 0 -20 5 -20 10 0 4 11 7 25 6 16 -2
25 2 25 11 0 8 -8 14 -18 14 -28 0 -43 20 -31 41 7 14 4 24 -13 41 -14 14 -17
23 -10 26 17 5 15 32 -3 32 -15 0 -23 12 -29 42 -10 48 -19 49 -38 6 -11 -24
-21 -56 -22 -73 -2 -24 -9 -31 -34 -39 -30 -8 -45 -26 -22 -26 6 0 10 -7 10
-15 0 -8 -5 -15 -11 -15 -6 0 -8 -7 -5 -15 3 -9 -1 -18 -10 -22 -22 -8 2 -22
41 -24 24 -1 21 -3 -17 -11 -50 -11 -68 -38 -25 -38 18 0 12 -9 -37 -54 -40
-35 -56 -55 -48 -60 18 -11 4 -26 -25 -26 -20 0 -24 -4 -18 -17 4 -10 8 -24 8
-30 0 -7 7 -13 14 -13 24 0 5 -17 -27 -23 -18 -4 -30 -13 -30 -22 0 -9 -10
-15 -22 -16 -19 -1 -19 -2 -5 -6 12 -3 16 -10 13 -20 -6 -15 13 -14 60 4 12 4
15 3 10 -6 -5 -8 -1 -14 13 -18 33 -9 24 -30 -11 -24 -4 0 -12 -8 -18 -19 -8
-15 -21 -20 -51 -20 -26 0 -38 4 -33 11 3 6 -1 10 -12 9 -43 -5 -62 0 -60 17
1 11 -10 19 -32 24 -18 4 -36 10 -40 14 -4 5 1 5 11 2 10 -4 38 -1 62 5 53 14
69 38 25 38 -20 0 -30 5 -30 15 0 8 5 15 10 15 6 0 10 4 10 9 0 5 -6 9 -12 8
-7 0 -29 1 -49 1 -33 2 -37 5 -35 27 1 17 7 25 19 25 10 0 28 5 40 12 20 10
18 12 -28 25 -40 12 -46 17 -32 24 15 9 15 12 3 25 -8 8 -20 14 -26 14 -6 0
-8 5 -5 10 3 6 0 10 -8 10 -8 0 -18 7 -21 16 -8 22 -8 26 3 19 5 -3 12 -1 16
5 3 5 -1 10 -10 10 -11 0 -15 5 -11 15 3 9 0 15 -10 15 -10 0 -14 6 -11 14 3
7 -3 25 -13 40 -16 25 -18 26 -25 9 -5 -10 -7 -21 -7 -25 1 -5 -2 -8 -8 -8 -5
0 -10 -11 -10 -25 0 -14 -7 -28 -15 -31 -11 -5 -13 -10 -5 -19 5 -6 7 -15 3
-18 -3 -4 0 -7 7 -7 22 0 -1 -16 -43 -30 -40 -13 -41 -30 -1 -30 39 0 28 -18
-16 -25 -42 -7 -63 -24 -33 -27 10 0 23 -2 28 -3 6 -2 24 -4 40 -5 17 -1 24
-4 15 -7 -8 -3 -19 -12 -23 -19 -4 -8 -15 -14 -22 -14 -8 0 -15 -6 -15 -14 0
-17 -51 -36 -97 -36 -30 0 -32 -2 -21 -19 11 -18 44 -30 96 -34 12 -1 22 -6
22 -11 0 -5 7 -3 15 4 9 7 18 10 22 6 3 -3 4 -7 2 -8 -44 -27 -72 -38 -96 -38
-42 0 -73 11 -73 25 0 7 -7 15 -15 19 -9 3 -15 18 -15 37 0 27 -2 30 -15 19
-18 -15 -18 -10 -5 25 7 17 7 24 0 20 -6 -4 -10 8 -11 27 l-1 33 -8 -38 c-4
-21 -5 -49 -2 -63 4 -20 1 -23 -13 -18 -10 4 -20 1 -25 -6 -11 -17 -30 -3 -30
22 0 14 -5 18 -16 14 -8 -3 -27 2 -42 12 l-26 17 29 5 c43 8 40 25 -7 36 -38
8 -43 12 -44 39 -1 17 -4 37 -7 45 -2 8 -8 30 -12 48 l-8 33 -18 -28 c-10 -15
-16 -36 -13 -45 3 -11 -2 -19 -16 -23 -21 -7 -26 -20 -10 -30 12 -7 1 -36 -19
-52 -10 -8 -12 -12 -4 -13 45 -1 -74 -80 -121 -80 -20 0 -20 0 0 15 18 14 17
14 -13 15 -48 0 -48 15 0 30 23 7 53 18 67 26 21 11 22 13 6 14 -20 0 -20 0 0
15 13 10 14 14 5 15 -11 0 -11 3 -1 15 10 12 6 13 -27 9 -21 -2 -32 -2 -25 2
22 10 13 21 -15 17 l-28 -5 23 17 c29 21 29 38 0 30 l-23 -6 23 20 c38 33 29
36 -38 13 -9 -3 -5 5 9 21 l23 26 -23 -5 c-21 -5 -22 -4 -8 8 18 15 14 38 -6
38 -8 0 -12 8 -10 20 2 11 0 20 -6 20 -5 0 -9 12 -9 26 0 26 -1 26 -25 -10
-14 -20 -25 -41 -25 -47 0 -6 -6 -7 -12 -3 -9 5 -9 2 1 -9 12 -15 11 -17 -3
-17 -10 0 -14 -4 -11 -10 3 -5 -2 -10 -11 -10 -16 0 -16 -1 2 -16 19 -15 19
-15 -3 -11 -27 6 -39 -19 -15 -32 15 -9 13 -10 -8 -11 l-25 -1 23 -19 c12 -10
28 -20 35 -23 29 -10 -5 -18 -40 -8 l-38 10 30 -26 c17 -14 24 -22 18 -19 -21
11 -15 -4 10 -25 l22 -18 -50 -1 -50 -2 30 -13 c24 -11 26 -14 10 -15 -18 -1
-17 -2 5 -15 18 -11 20 -14 8 -15 -22 0 -69 20 -88 39 -21 20 -27 -5 -6 -28 9
-10 16 -22 16 -28 0 -6 10 -13 22 -16 12 -4 19 -9 16 -13 -4 -3 -23 -1 -42 6
-20 6 -41 10 -47 8 -20 -7 65 -56 111 -64 43 -7 43 -8 15 -14 -16 -3 -57 -2
-90 1 -33 4 -61 6 -63 4 -2 -2 9 -10 25 -19 15 -8 22 -15 15 -16 -7 0 -10 -4
-7 -10 3 -5 36 -11 73 -11 37 -1 54 -4 37 -6 -16 -3 -35 -9 -42 -14 -7 -7 -14
-6 -18 1 -3 5 -13 10 -22 10 -13 0 -11 -5 8 -26 l24 -26 -30 8 c-16 4 -40 11
-52 15 -21 8 -22 7 -10 -11 6 -11 30 -30 52 -41 31 -16 34 -19 13 -15 -17 4
-28 2 -28 -4 0 -6 -10 -8 -25 -4 -21 5 -24 3 -19 -11 6 -15 4 -15 -30 -1 -20
8 -36 13 -36 11 0 -14 69 -65 101 -74 22 -7 39 -16 39 -22 0 -18 -44 -31 -70
-20 -18 7 -20 10 -7 10 9 1 17 7 17 14 0 16 -47 40 -61 31 -18 -10 -50 7 -45
24 9 27 -9 45 -38 40 -14 -3 -26 -1 -26 3 0 5 -7 9 -16 9 -24 0 -114 33 -114
42 0 5 -6 8 -13 8 -8 0 -14 7 -14 15 0 8 5 15 10 15 6 0 3 8 -6 18 -13 14 -14
21 -5 30 8 8 9 12 1 12 -6 0 -17 33 -23 73 -7 39 -15 76 -18 81 -8 14 -22 -19
-28 -66 -4 -24 -10 -45 -13 -48 -14 -10 -20 -40 -9 -46 7 -5 5 -12 -7 -21 -11
-7 -13 -13 -7 -13 7 0 12 -4 12 -10 0 -5 -6 -10 -13 -10 -9 0 -13 -10 -12 -27
1 -16 -3 -32 -9 -36 -8 -6 -7 -10 2 -14 23 -9 12 -23 -20 -24 -18 0 -27 -3
-20 -6 6 -2 10 -9 7 -14 -3 -4 -21 -1 -40 8 -34 16 -38 33 -9 33 15 0 44 23
44 34 0 3 -18 10 -41 16 l-41 11 23 25 22 24 -22 0 c-19 0 -23 4 -19 25 5 21
1 25 -21 26 -17 1 -20 3 -8 6 27 7 20 33 -13 44 -30 11 -39 32 -20 44 7 4 0
17 -17 33 -23 21 -25 27 -12 30 19 3 14 42 -5 42 -6 0 -19 20 -29 45 -20 47
-37 59 -37 26 0 -11 -7 -27 -16 -35 -8 -9 -12 -16 -8 -16 3 0 2 -6 -3 -13 -6
-6 -9 -25 -8 -41 2 -25 -3 -31 -37 -44 -36 -14 -37 -16 -22 -33 15 -17 15 -19
1 -25 -9 -3 -13 -12 -11 -19 3 -7 -3 -15 -13 -18 -14 -3 -10 -8 17 -20 l35
-16 -37 -1 c-20 0 -40 -5 -43 -10 -3 -5 -1 -10 6 -10 7 0 9 -3 6 -7 -4 -3 1
-12 11 -20 16 -13 15 -15 -8 -31 -13 -9 -37 -30 -54 -46 -22 -22 -26 -30 -15
-37 22 -13 -18 -24 -44 -11 -12 6 -32 14 -45 17 -19 5 -21 9 -11 21 6 8 18 14
26 14 26 0 2 20 -25 21 -18 0 -22 3 -12 7 23 10 18 32 -10 47 -22 13 -23 14
-5 15 16 0 17 2 6 9 -11 7 -9 10 10 14 24 4 24 5 2 12 -13 4 -19 13 -16 21 3
8 0 14 -6 14 -6 0 -11 8 -11 18 0 10 -3 22 -7 26 -4 3 -8 14 -10 24 -10 64
-17 84 -30 89 -8 3 -19 1 -24 -4 -8 -8 -11 -22 -23 -96 -1 -10 -10 -27 -20
-39 -17 -19 -17 -22 -2 -30 17 -9 22 -38 8 -38 -5 0 -14 -18 -21 -39 -6 -23
-19 -41 -29 -44 -14 -3 -12 -6 8 -15 22 -9 22 -11 5 -12 -20 -1 -20 -1 -1 -15
15 -12 16 -15 5 -15 -21 0 -12 -57 10 -63 9 -3 4 -5 -11 -6 -39 -1 -35 -21 5
-22 l32 -1 -30 -13 c-16 -8 -25 -15 -20 -15 6 -1 1 -5 -10 -10 -17 -7 -16 -9
10 -10 29 -2 29 -2 -10 -14 -36 -12 -38 -14 -20 -24 12 -7 15 -12 6 -12 -11 0
-11 -3 -1 -15 10 -12 10 -15 -1 -16 -8 -1 -3 -5 11 -10 18 -6 12 -7 -25 -4
l-50 5 25 -20 c14 -11 19 -20 12 -20 -18 0 -4 -20 22 -30 18 -7 15 -9 -21 -15
-41 -7 -51 -25 -13 -25 10 0 20 -7 24 -15 4 -11 -1 -15 -19 -15 -28 0 -35 -20
-7 -21 13 0 11 -3 -6 -10 -26 -10 -21 -29 8 -29 10 0 22 -5 26 -11 5 -9 -7
-10 -47 -5 l-54 6 25 -20 c17 -13 20 -20 10 -20 -10 0 -7 -7 10 -20 l25 -20
-27 0 c-41 0 -34 -17 10 -25 l37 -8 -55 -16 c-39 -12 -51 -19 -41 -26 11 -6
-2 -15 -45 -31 -58 -21 -63 -22 -116 -7 -70 20 -70 43 -1 35 33 -3 44 -2 39 7
-5 7 0 11 13 11 11 0 22 4 25 9 3 5 -27 12 -67 16 -74 6 -108 18 -94 31 11 12
48 13 85 4 28 -7 33 -6 28 6 -3 8 0 14 7 14 7 0 17 8 24 19 11 17 7 19 -59 24
-39 3 -76 11 -82 17 -7 7 -4 10 10 11 10 0 13 3 7 6 -24 9 -14 30 12 25 15 -2
25 0 25 7 0 6 -7 11 -15 11 -21 0 -19 20 3 21 9 1 -10 5 -43 10 -82 12 -90 16
-75 34 6 8 9 18 6 23 -3 6 0 10 7 9 80 -3 99 18 26 29 -42 7 -53 23 -16 25 12
1 2 5 -22 10 -51 10 -59 15 -43 31 8 8 8 17 1 30 -8 15 -7 23 8 34 17 13 17
13 -4 14 -18 0 -23 6 -23 24 0 14 -5 28 -10 31 -8 5 -7 11 1 21 9 11 9 14 -1
14 -7 0 -10 7 -6 16 3 9 0 25 -8 36 -14 19 -15 18 -27 -16 -15 -41 -33 -29
-23 16 3 14 0 29 -5 33 -7 4 -11 -6 -11 -25 0 -19 -6 -33 -16 -37 -9 -3 -14
-13 -11 -24 6 -23 -16 -25 -51 -6 l-23 13 28 13 28 13 -30 13 -30 13 27 1 c39
1 45 20 8 27 -21 5 -29 11 -26 21 4 11 1 13 -14 8 -23 -7 -27 13 -9 48 9 16 9
22 0 25 -6 2 -11 21 -11 43 0 21 -4 39 -10 39 -5 0 -10 -15 -10 -34 0 -21 -6
-36 -15 -40 -12 -4 -13 -11 -5 -31 12 -33 13 -45 0 -25 -13 21 -22 7 -23 -42
-2 -34 -7 -45 -24 -53 -27 -12 -30 -25 -5 -25 12 -1 8 -6 -12 -16 -17 -10 -31
-12 -35 -6 -3 5 -17 13 -30 17 -22 7 -21 8 18 26 54 24 52 39 -6 40 -45 1 -46
2 -20 12 33 13 35 24 4 30 -16 3 -13 5 11 6 37 1 44 21 7 21 -17 0 -23 4 -19
14 4 11 -5 16 -38 18 l-43 3 45 25 c57 32 65 58 17 52 -19 -2 -38 1 -41 7 -5
7 5 11 28 11 48 0 45 15 -6 33 -38 14 -40 16 -21 22 27 9 21 25 -10 25 -19 0
-17 3 13 29 l35 28 -33 8 c-27 5 -31 9 -21 21 9 11 7 14 -12 14 -19 0 -21 2
-9 10 13 9 13 11 0 19 -12 9 -12 11 3 17 21 8 22 24 2 24 -8 0 -15 5 -15 10 0
6 5 10 12 10 6 0 3 7 -8 15 -11 8 -14 15 -6 15 14 0 17 40 2 40 -5 0 -7 6 -4
14 3 8 0 17 -5 21 -6 3 -9 11 -5 16 3 5 0 16 -6 24 -10 12 -9 15 6 15 17 1 17
2 4 13 -9 7 -15 23 -14 37 1 14 -3 31 -8 37 -6 7 -8 25 -5 39 2 15 -2 43 -10
62 l-14 34 -20 -36 c-11 -20 -17 -42 -13 -48 4 -5 0 -14 -7 -19 -11 -7 -11
-11 -1 -17 9 -6 10 -16 1 -40 -6 -18 -9 -42 -6 -54 3 -11 -1 -27 -9 -35 -8 -8
-12 -23 -9 -33 4 -12 0 -20 -12 -23 -16 -4 -15 -6 4 -12 14 -4 20 -12 16 -19
-4 -6 -8 -15 -8 -20 0 -5 -9 -12 -19 -16 -18 -6 -18 -7 4 -23 l23 -16 -27 -7
c-27 -6 -33 -18 -16 -29 6 -4 2 -15 -10 -27 -21 -23 -22 -25 -25 -73 -1 -16
-3 -36 -4 -42 0 -7 -10 -13 -21 -13 -11 0 -20 -4 -20 -10 0 -5 6 -10 14 -10
11 0 12 -8 6 -37 -5 -20 -7 -40 -4 -44 2 -4 -6 -9 -17 -12 -12 -3 -18 -10 -14
-17 4 -6 1 -17 -5 -25 -7 -8 -9 -22 -6 -31 5 -13 2 -15 -14 -11 -11 3 -20 1
-20 -3 0 -19 -198 22 -212 43 -13 20 -9 28 9 19 28 -14 133 -24 133 -12 0 5 9
10 20 10 11 0 20 4 20 9 0 5 15 15 32 21 l33 13 -40 9 c-22 5 -67 16 -99 23
-60 15 -115 49 -71 45 39 -4 50 -1 37 12 -12 12 12 29 61 42 50 12 27 26 -45
27 -40 1 -64 4 -53 6 11 3 25 9 30 13 6 4 23 10 38 14 40 9 23 26 -26 26 -45
0 -113 16 -121 28 -2 4 18 6 45 6 36 -1 49 2 49 12 0 8 -10 14 -22 15 -22 0
-22 1 -3 9 11 5 29 11 40 15 19 7 19 8 -5 18 -21 8 -22 11 -7 14 23 6 12 23
-16 23 -17 0 -19 2 -8 9 10 7 6 11 -17 16 -28 6 -30 9 -22 31 7 17 7 23 0 19
-7 -4 -9 2 -5 18 8 32 -11 44 -25 16 -18 -33 -22 -16 -5 24 19 45 19 51 1 44
-10 -4 -16 6 -20 35 -8 49 -26 40 -28 -14 -1 -26 -5 -35 -15 -31 -17 7 -16 -7
2 -31 8 -11 15 -31 15 -44 0 -23 -1 -24 -24 -9 -34 23 -40 9 -10 -26 29 -35
23 -42 -41 -53 -22 -3 -44 -10 -50 -14 -5 -5 -23 -10 -40 -12 l-30 -5 35 -8
c29 -7 31 -9 15 -16 -21 -7 -21 -8 31 -24 13 -4 14 -8 4 -20 -10 -13 -9 -15
11 -16 22 -1 21 -2 -8 -15 -36 -16 -42 -30 -15 -36 9 -2 -7 -10 -35 -17 -60
-15 -61 -31 -3 -31 32 0 38 -3 33 -16 -5 -13 -2 -15 15 -10 11 4 23 3 26 -3 6
-10 -76 -31 -119 -31 -14 0 -25 -4 -25 -10 0 -5 14 -10 31 -10 27 0 30 -2 19
-15 -7 -8 -18 -15 -24 -15 -6 0 -20 -11 -30 -25 -17 -22 -44 -26 -31 -4 4 5
-9 10 -27 11 -18 0 -37 2 -43 3 -5 2 -16 3 -24 4 -11 1 -11 4 -1 16 6 8 9 19
5 25 -4 6 4 10 19 10 48 0 28 26 -29 39 -60 14 -76 26 -45 36 11 4 18 11 15
16 -4 5 12 9 34 9 42 0 63 16 40 31 -11 7 -11 9 2 9 9 0 22 7 29 15 11 13 8
15 -15 15 -17 0 -29 6 -32 18 -3 13 -13 17 -44 15 -21 -1 -39 2 -39 8 0 5 7 9
15 9 8 0 15 5 15 10 0 6 -9 10 -20 10 -11 0 -20 5 -20 10 0 6 -9 10 -20 10
-25 0 -70 21 -70 32 0 5 9 4 20 -2 14 -7 33 -7 67 1 78 18 77 17 63 34 -9 10
-9 15 -1 15 6 0 11 5 11 10 0 6 -16 10 -35 10 -28 0 -35 4 -35 19 0 10 7 21
15 25 30 11 14 24 -40 31 -37 4 -55 11 -56 21 -2 22 -4 28 -11 39 -6 10 8 15
55 18 9 1 17 7 17 14 0 7 8 13 17 13 29 0 1 16 -61 36 -49 15 -55 19 -37 25
22 9 27 24 11 34 -5 3 -7 12 -4 20 4 8 -1 18 -10 21 -9 3 -13 10 -10 15 3 5
-6 9 -20 9 -18 0 -24 4 -20 15 4 8 1 15 -5 15 -6 0 -11 4 -11 10 0 5 6 7 14 4
8 -3 19 3 26 15 9 18 8 21 -9 21 -11 0 -23 5 -26 10 -3 6 1 10 9 10 9 0 16 5
16 10 0 6 -8 10 -18 10 -29 0 -33 11 -16 38 16 24 16 25 -5 19 -18 -4 -20 -3
-11 8 8 10 7 15 -3 22 -9 4 -17 18 -19 31 -4 29 -22 33 -26 7 -2 -11 -11 -28
-19 -37 -8 -9 -12 -22 -7 -29 5 -8 3 -10 -6 -4 -9 6 -10 2 -5 -15 5 -15 2 -26
-6 -31 -12 -8 -12 -10 0 -18 19 -12 -3 -24 -32 -17 -12 3 -17 3 -10 0 6 -3 9
-16 7 -30 -3 -19 0 -24 15 -24 14 0 19 -5 15 -15 -4 -8 -1 -15 5 -15 21 0 11
-16 -23 -34 -20 -11 -47 -17 -64 -14 -19 3 -29 0 -29 -9 0 -6 4 -10 9 -7 5 4
8 -2 6 -12 -2 -14 3 -19 19 -19 11 0 24 -3 28 -7 4 -4 14 -4 23 -2 12 4 11 2
-2 -7 -11 -6 -41 -17 -67 -23 -44 -10 -47 -12 -34 -30 8 -10 25 -19 39 -20 17
0 26 -7 26 -18 0 -9 8 -19 18 -21 11 -3 7 -7 -16 -12 -31 -7 -54 -25 -33 -25
6 0 11 -5 11 -11 0 -18 -28 -39 -44 -33 -9 3 -16 1 -16 -4 0 -6 -25 -12 -56
-14 l-56 -3 25 -27 c15 -16 23 -28 19 -28 -4 0 0 -5 8 -10 8 -5 23 -7 32 -4
10 3 24 -3 34 -14 10 -12 24 -17 35 -15 14 4 19 0 19 -15 0 -33 -89 -45 -126
-17 -17 13 -17 14 -1 15 19 0 24 20 5 20 -7 0 -24 9 -38 19 -20 16 -22 22 -12
34 9 10 10 17 2 22 -5 3 -7 17 -4 31 7 28 -10 32 -26 7 -10 -16 -11 -16 -4 2
14 41 16 65 5 65 -6 0 -11 17 -11 41 0 28 -4 39 -12 36 -7 -2 -13 -19 -13 -39
0 -19 -6 -43 -14 -52 -11 -13 -11 -20 -3 -28 7 -7 12 -23 12 -37 0 -19 -3 -22
-12 -13 -18 18 -31 14 -25 -7 3 -15 -2 -20 -25 -25 -42 -8 -50 -8 -43 4 4 6
10 8 15 5 4 -3 16 -2 25 1 13 5 14 9 3 15 -11 7 -10 11 2 19 8 5 13 10 10 11
-3 0 -18 3 -35 5 -16 3 -32 9 -35 13 -3 5 -16 12 -29 16 -18 5 -20 9 -10 15 7
5 17 6 22 3 8 -5 47 34 47 49 0 4 -7 8 -16 8 -8 0 -13 4 -10 9 4 5 -3 7 -13 4
-10 -3 -28 0 -40 7 -17 9 -19 14 -11 30 8 15 8 20 -2 20 -9 0 -9 3 2 10 13 9
13 11 0 20 -13 9 -13 11 0 19 12 9 12 11 -4 17 -11 4 -16 13 -13 26 4 14 1 18
-9 14 -17 -7 -19 10 -1 17 9 4 9 8 0 14 -6 4 -16 24 -21 43 l-10 35 -1 -38
c-1 -26 -5 -36 -13 -31 -7 5 -9 0 -6 -14 4 -16 2 -19 -10 -15 -11 5 -14 2 -9
-10 4 -9 10 -24 13 -32 4 -10 0 -15 -11 -15 -9 0 -13 -5 -10 -11 4 -6 1 -9 -7
-7 -7 2 -13 0 -13 -3 0 -3 -6 -13 -13 -22 -11 -13 -10 -16 7 -22 22 -7 29 -25
10 -25 -6 0 -9 -7 -5 -15 3 -9 -5 -20 -22 -30 -26 -14 -26 -15 -6 -21 19 -5
20 -9 10 -30 -6 -13 -16 -22 -23 -20 -6 3 -13 -4 -16 -15 -3 -10 -11 -19 -17
-19 -10 0 -10 4 0 15 20 24 6 28 -35 11 -21 -9 -39 -16 -41 -16 -1 0 20 21 47
48 56 54 61 67 22 58 -27 -7 -27 -6 5 13 17 12 32 25 32 30 0 15 -18 23 -25
11 -3 -5 -11 -10 -17 -10 -7 0 -2 9 11 21 29 27 22 33 -26 20 -32 -9 -35 -8
-20 3 26 20 21 37 -8 30 l-26 -6 17 36 c20 42 15 52 -18 35 l-23 -12 23 25
c12 13 22 30 22 36 0 14 2 14 -38 3 -30 -9 -31 -8 -21 10 6 12 16 18 24 16 9
-4 11 1 8 14 -6 21 -18 25 -28 9 -3 -6 -11 -10 -17 -10 -6 0 -3 11 6 25 9 14
12 25 7 25 -5 0 -7 9 -4 19 4 16 1 19 -15 14 -16 -4 -20 0 -20 21 0 14 4 26 9
26 5 0 9 4 9 10 0 5 -6 7 -14 4 -11 -4 -16 4 -18 33 l-3 38 -15 -28 -16 -28
-14 36 c-7 19 -20 35 -27 35 -8 0 -11 -5 -8 -10 4 -6 -1 -22 -9 -35 -9 -14
-14 -25 -11 -25 3 0 1 -9 -5 -21 -9 -15 -8 -24 2 -37 9 -11 10 -14 1 -8 -18
10 -39 -4 -22 -15 11 -7 9 -9 -5 -9 -19 0 -19 0 0 -21 19 -22 19 -22 -2 -11
-26 14 -40 4 -18 -13 17 -12 12 -55 -7 -55 -6 0 -7 6 -3 13 5 7 1 7 -10 -2
-16 -14 -16 -15 8 -30 27 -16 42 -41 26 -41 -6 0 -19 9 -30 20 -12 12 -22 15
-26 9 -3 -6 -1 -16 5 -22 14 -14 15 -30 1 -22 -5 3 -10 3 -10 0 0 -3 14 -11
30 -16 39 -14 39 -30 1 -19 -33 9 -46 3 -30 -16 8 -10 5 -11 -13 -7 l-23 5 22
-20 c12 -11 19 -22 16 -26 -4 -3 -1 -6 6 -6 8 0 11 -7 7 -15 -3 -8 2 -19 12
-24 14 -9 15 -10 1 -11 -8 0 -24 7 -35 15 -33 25 -49 19 -29 -11 9 -15 12 -23
6 -20 -14 9 -57 -4 -45 -13 5 -3 18 -16 28 -29 17 -19 17 -22 3 -16 -9 3 -17
10 -17 15 0 5 -7 9 -15 9 -20 0 -19 -4 10 -50 29 -45 31 -54 11 -47 -20 8 -28
-4 -14 -20 10 -12 7 -13 -15 -8 -29 8 -39 -11 -11 -22 14 -5 33 -39 40 -72 1
-8 9 -18 16 -23 9 -7 7 -8 -7 -3 -11 4 -40 9 -65 11 l-45 4 30 -25 c17 -14 34
-25 38 -25 5 0 5 -5 2 -11 -4 -6 2 -19 14 -30 19 -18 19 -22 7 -35 -8 -7 -19
-14 -25 -14 -25 0 -9 -18 22 -25 17 -4 27 -9 20 -11 -9 -4 -51 11 -95 34 -20
10 -5 -19 25 -50 26 -26 32 -39 27 -60 -5 -30 -23 -26 -28 6 -4 24 -27 47 -37
38 -4 -4 -5 5 -1 21 4 15 2 27 -3 27 -6 0 -8 7 -5 15 4 8 1 15 -5 15 -6 0 -11
11 -11 25 0 14 -4 25 -10 25 -5 0 -10 -6 -10 -13 0 -8 -9 -24 -19 -36 -15 -18
-18 -28 -11 -47 5 -13 6 -24 1 -24 -5 0 -8 -22 -7 -50 2 -27 -1 -50 -6 -50 -4
0 -8 7 -8 15 0 10 -10 15 -30 15 -16 0 -30 5 -30 10 0 6 5 10 10 10 6 0 10 5
10 11 0 7 -10 9 -27 5 -19 -4 -23 -4 -14 3 7 5 11 13 7 19 -3 5 2 13 12 17 16
6 16 7 -2 21 -11 8 -16 14 -10 14 5 0 3 4 -5 9 -10 7 -11 13 -2 30 9 16 9 21
0 21 -6 0 -9 7 -5 15 3 8 1 15 -4 15 -6 0 -8 13 -5 29 3 17 1 32 -4 35 -4 3
-6 17 -3 31 2 15 0 25 -7 25 -8 0 -10 11 -7 33 5 31 -12 87 -26 87 -4 0 -10
-17 -13 -37 -3 -21 -10 -46 -16 -55 -6 -12 -6 -18 2 -18 8 0 8 -4 2 -12 -6 -7
-9 -28 -8 -45 1 -18 -3 -33 -8 -33 -5 0 -7 -14 -5 -30 3 -20 0 -30 -9 -30 -7
0 -13 -4 -13 -10 0 -5 6 -10 14 -10 9 0 12 -7 9 -20 -3 -11 -12 -20 -19 -20
-19 0 -18 -10 3 -26 16 -12 15 -14 -14 -20 -18 -3 -31 -11 -30 -18 1 -6 -13
-11 -36 -11 -21 0 -42 -7 -46 -14 -7 -10 -15 -11 -37 -3 l-29 10 30 1 c21 1
26 4 16 10 -7 5 -10 14 -7 20 5 7 -2 11 -17 11 -18 0 -23 5 -22 23 1 12 -2 27
-7 34 -5 7 -7 16 -4 22 3 5 1 11 -5 13 -6 2 -13 25 -16 50 -3 27 -10 46 -17
45 -6 -1 -10 6 -8 17 3 13 -1 17 -12 13 -9 -4 -15 -3 -14 1 0 4 -4 18 -9 32
-10 24 -11 24 -18 5 -19 -57 -28 -65 -61 -63 -35 2 -36 13 -1 13 14 0 21 7 22
22 1 17 -6 25 -32 34 -36 11 -35 11 -38 52 -1 17 3 27 11 27 22 0 16 15 -11
30 -14 7 -23 16 -20 18 3 3 -2 14 -12 24 -15 17 -15 18 5 18 30 0 28 25 -3 54
-16 15 -23 30 -19 40 4 11 1 16 -11 16 -12 0 -15 4 -8 13 5 6 6 23 2 37 -4 14
-8 21 -9 15 -1 -5 -5 0 -8 13 -9 30 -27 24 -26 -9 0 -20 -4 -25 -18 -21 -14 3
-15 6 -4 18 14 14 11 60 -6 81 -5 7 -7 21 -3 32 3 11 2 29 -4 39 -7 13 -7 22
1 30 9 9 9 18 1 34 -6 13 -14 31 -17 41 -3 9 -12 17 -21 17 -8 0 -16 6 -16 13
-1 6 -2 19 -3 27 0 9 -11 15 -26 16 -14 0 -35 6 -48 13 -12 6 -27 9 -33 6 -5
-4 -16 -1 -24 5 -8 7 -15 9 -15 5 0 -5 -8 0 -19 9 -12 11 -27 15 -43 11 -18
-5 -27 -2 -31 9 -9 24 -30 19 -68 -14 -19 -16 -44 -30 -56 -30 -13 0 -23 -5
-23 -11 0 -6 -8 -8 -19 -4 -13 4 -24 -1 -34 -15 -7 -11 -17 -17 -21 -13 -4 4
-4 -1 0 -12 4 -11 12 -23 18 -27 16 -11 -15 -29 -37 -22 -10 3 -29 -2 -42 -10
-27 -18 -34 -56 -10 -56 8 0 15 -8 15 -18 0 -10 6 -24 13 -31 10 -10 9 -11 -6
-6 -13 6 -17 2 -17 -16 -1 -13 -14 -40 -30 -59 -31 -36 -39 -70 -17 -70 9 0
12 -15 11 -47 -2 -76 -1 -73 -34 -62 -16 6 -30 14 -30 18 0 4 -16 12 -35 18
l-35 11 0 -2664 0 -2664 8710 0 8710 0 0 3092 c0 2405 -3 3089 -12 3080 -7 -7
-28 -12 -47 -11 l-36 1 48 16 47 16 0 48 c0 45 -2 48 -26 48 l-25 0 25 24 c15
13 26 32 26 42 0 17 -6 19 -49 16 -43 -3 -49 -1 -47 14 2 11 18 23 43 31 27 9
43 21 47 36 7 29 3 31 -31 14 -15 -8 -51 -18 -78 -22 l-50 -6 40 20 40 19 -40
2 c-22 1 -49 5 -60 10 l-20 8 20 7 c77 26 156 58 160 65 3 5 -12 7 -32 4 l-38
-5 43 20 c48 23 56 37 15 26 l-28 -7 24 26 24 25 -34 -9 c-19 -6 -45 -10 -59
-10 -24 1 -23 2 10 21 l35 20 -37 -5 c-21 -3 -38 -2 -38 2 0 3 12 19 28 35
l27 30 -27 -7 c-14 -3 -34 -9 -45 -12 -16 -5 -16 -4 2 11 11 9 29 23 39 31 26
18 15 27 -18 14 -15 -5 -39 -10 -53 -10 -24 0 -24 1 13 26 21 15 41 28 43 30
2 2 -14 1 -35 -2 l-39 -6 30 26 c21 19 24 24 10 19 -18 -6 -18 -5 -6 10 12 15
11 17 -11 17 -21 0 -25 4 -23 25 2 16 -2 25 -10 25 -8 0 -15 13 -17 33 l-3 32
-12 -32z m-374 -921 c54 -33 103 -52 140 -53 l26 0 -25 -11 c-24 -10 -22 -12
30 -23 l55 -12 -38 -8 c-21 -4 -80 -4 -130 0 l-92 7 25 -22 25 -21 -40 6 c-25
4 -48 16 -62 32 -13 15 -23 27 -23 27 0 1 20 1 43 1 27 0 50 7 60 17 20 19 12
28 -23 28 -15 0 -33 7 -40 15 -10 12 -9 15 5 15 14 0 15 3 5 15 -21 25 7 19
59 -13z m46 -152 c3 -5 2 -10 -4 -10 -5 0 -13 5 -16 10 -3 6 -2 10 4 10 5 0
13 -4 16 -10z m-55 -60 c13 -9 13 -10 0 -9 -8 0 -24 4 -35 9 l-20 9 20 0 c11
0 27 -4 35 -9z m59 -96 c2 -2 -10 -4 -27 -4 -18 0 -32 5 -32 10 0 9 47 4 59
-6z m-579 -144 c0 -5 20 -10 45 -10 25 0 45 -4 45 -10 0 -6 -28 -10 -62 -11
-35 0 -57 -3 -50 -6 30 -12 7 -23 -52 -23 -44 0 -67 5 -76 15 -11 13 -8 15 19
15 17 0 31 5 31 10 0 6 13 10 29 10 17 0 33 5 36 10 3 6 13 10 21 10 8 0 14
-4 14 -10z m-239 -34 c20 -2 46 -12 59 -23 l22 -21 -54 3 c-29 2 -58 4 -64 5
-7 0 -20 12 -29 26 -17 27 -17 27 6 19 13 -4 40 -8 60 -9z m-546 -25 c6 -11
71 -8 82 3 9 9 73 7 73 -2 0 -4 -6 -14 -12 -21 -11 -10 -7 -11 17 -6 17 4 35
8 42 10 6 2 13 -1 16 -8 3 -9 10 -9 31 1 15 7 25 8 22 3 -10 -16 -98 -41 -144
-41 -46 0 -152 42 -152 60 0 13 17 13 25 1z m-480 -101 c3 -5 1 -10 -4 -10 -6
0 -11 5 -11 10 0 6 2 10 4 10 3 0 8 -4 11 -10z m-14245 -80 c-8 -5 -17 -7 -19
-4 -3 3 1 9 9 14 8 5 17 7 19 4 3 -3 -1 -9 -9 -14z m14341 6 l-23 -13 23 -6
c44 -12 12 -17 -46 -7 -79 13 -87 25 -18 28 31 1 59 5 62 7 2 3 9 5 15 5 6 -1
0 -7 -13 -14z m-1796 -35 c-3 -5 4 -12 14 -16 24 -7 17 -35 -8 -35 -10 0 -25
-6 -35 -13 -24 -18 -111 -8 -111 13 0 8 7 14 17 12 9 -1 19 2 23 8 3 5 17 10
31 10 14 0 32 7 40 15 17 16 39 21 29 6z m-155 -41 c0 -5 -7 -7 -15 -4 -8 4
-15 8 -15 10 0 2 7 4 15 4 8 0 15 -4 15 -10z m1895 -10 c4 -6 -7 -10 -27 -9
-27 0 -30 2 -13 9 27 12 33 12 40 0z m-13314 -37 c13 -15 12 -15 -8 -4 -24 12
-29 21 -14 21 5 0 15 -7 22 -17z m11604 7 c-3 -5 -13 -10 -21 -10 -8 0 -12 5
-9 10 3 6 13 10 21 10 8 0 12 -4 9 -10z m-12595 -39 c0 -4 -12 -13 -27 -20
-27 -12 -27 -12 -10 6 9 11 14 23 10 27 -4 4 0 4 10 0 9 -3 17 -9 17 -13z
m-481 -5 c10 -12 8 -13 -8 -9 -12 3 -18 9 -15 14 7 12 10 11 23 -5z m13031
-32 c13 -12 13 -14 0 -15 -55 -4 -140 18 -119 32 19 11 101 -1 119 -17z
m-12740 -3 c0 -3 -14 -6 -30 -6 -26 0 -28 2 -14 12 15 11 44 8 44 -6z m-365
-11 c0 -8 17 -23 38 -32 20 -10 37 -20 37 -23 0 -2 -8 -21 -17 -41 -17 -34
-19 -36 -58 -30 -22 4 -58 12 -80 19 l-40 11 50 6 c36 4 45 8 33 14 -22 10
-14 26 13 26 31 0 22 17 -18 33 -21 9 -32 16 -25 16 7 1 10 6 7 12 -5 7 5 9
26 7 22 -2 34 -8 34 -18z m12682 1 c2 -21 -42 -35 -66 -21 -11 6 -7 11 15 23
38 21 49 21 51 -2z m-12187 -42 c10 -17 8 -21 -9 -26 -17 -4 -20 -10 -14 -31
4 -17 2 -23 -6 -18 -6 4 -11 1 -11 -8 0 -18 30 -36 61 -36 44 0 4 -20 -44 -21
-49 -2 -59 -11 -29 -28 9 -6 11 -11 5 -11 -18 0 -16 -20 1 -20 40 0 22 -53
-29 -89 -19 -13 -33 -26 -31 -30 2 -3 -9 -18 -24 -33 l-28 -28 -6 63 c-17 199
-18 184 10 201 29 20 23 42 -7 26 -15 -9 -19 -7 -19 5 0 8 6 15 13 15 7 0 18
9 25 20 7 11 21 20 32 20 12 0 23 7 26 15 4 8 14 15 24 15 11 0 22 5 25 10 10
16 23 12 35 -11z m1495 -37 c-3 -3 -11 0 -18 7 -9 10 -8 11 6 5 10 -3 15 -9
12 -12z m-1762 -22 c16 -19 16 -20 -7 -18 -14 1 -22 6 -19 11 3 5 -1 13 -8 18
-12 7 -11 9 1 9 9 0 23 -9 33 -20z m2067 6 c0 -2 -7 -6 -15 -10 -8 -3 -15 -1
-15 4 0 6 7 10 15 10 8 0 15 -2 15 -4z m-365 -26 c-3 -5 -10 -10 -16 -10 -5 0
-9 5 -9 10 0 6 7 10 16 10 8 0 12 -4 9 -10z m-1679 -18 c11 -7 26 -167 17
-189 -3 -7 -14 -13 -26 -13 -22 1 -22 1 -2 16 17 13 18 16 5 24 -10 7 -11 10
-2 10 22 0 13 20 -10 21 -13 0 -17 3 -10 6 22 9 13 23 -15 24 -27 1 -27 1 6
10 31 10 32 11 15 24 -18 14 -18 14 4 15 30 0 28 18 -3 26 -20 5 -23 9 -14 20
13 16 19 17 35 6z m2039 -12 c3 -5 1 -10 -4 -10 -6 0 -11 5 -11 10 0 6 2 10 4
10 3 0 8 -4 11 -10z m10124 -26 c10 -9 -35 -3 -49 6 -11 8 -7 9 15 4 17 -4 32
-8 34 -10z m276 -34 c-3 -5 -23 -10 -43 -10 -28 0 -33 3 -22 10 20 13 73 13
65 0z m-12657 -62 c2 -9 -4 -23 -13 -32 -15 -15 -19 -15 -46 1 -16 10 -42 28
-57 41 -22 19 -23 22 -7 18 11 -3 38 -8 60 -12 38 -7 39 -6 25 12 -14 18 -14
18 10 3 14 -9 26 -23 28 -31z m12400 15 c-10 -2 -28 -2 -40 0 -13 2 -5 4 17 4
22 1 32 -1 23 -4z m-9894 -25 c-5 -8 0 -9 17 -5 23 6 23 6 4 -9 -23 -17 -90
-13 -109 6 -8 9 -6 11 10 6 12 -4 32 -2 45 3 33 13 41 13 33 -1z m9472 -33
c10 -8 14 -15 7 -15 -19 0 -43 11 -43 21 0 13 14 11 36 -6z m-11736 -70 c0 -8
-4 -15 -9 -15 -5 0 -11 7 -15 15 -3 9 0 15 9 15 8 0 15 -7 15 -15z m2187 -11
c-3 -3 -12 -4 -19 -1 -8 3 -5 6 6 6 11 1 17 -2 13 -5z m778 -80 c-40 -17 -62
-17 -68 0 -6 16 39 25 78 17 17 -4 16 -6 -10 -17z m3440 -4 c4 -6 -5 -10 -20
-10 -15 0 -24 4 -20 10 3 6 12 10 20 10 8 0 17 -4 20 -10z m195 -5 c-7 -8 -17
-15 -22 -15 -6 0 -5 7 2 15 7 8 17 15 22 15 6 0 5 -7 -2 -15z m-252 -23 c2 -7
-7 -12 -22 -12 -27 0 -35 15 -13 23 17 7 30 3 35 -11z m1092 -20 c0 -13 -12
-22 -22 -16 -10 6 -1 24 13 24 5 0 9 -4 9 -8z m-6180 -44 c0 -4 -6 -8 -14 -8
-8 0 -17 4 -20 8 -2 4 4 8 15 8 10 0 19 -4 19 -8z m1566 -3 c-3 -8 -2 -15 2
-15 4 0 8 -9 8 -20 0 -23 -14 -27 -22 -5 -4 8 -17 15 -30 15 -13 0 -24 5 -24
10 0 10 14 14 38 11 6 -1 12 3 12 9 0 5 5 10 11 10 6 0 9 -7 5 -15z m4044 -36
c0 -6 8 -8 18 -5 14 5 14 4 -2 -9 -21 -16 -59 -18 -91 -5 -22 9 -12 15 35 23
14 2 28 5 33 6 4 0 7 -4 7 -10z m-3440 -14 c0 -8 -9 -15 -20 -15 -21 0 -27
-15 -10 -25 19 -12 -1 -25 -38 -25 -20 0 -44 5 -52 10 -12 8 -10 10 10 10 23
0 23 1 7 17 -16 17 -15 18 25 29 61 16 78 16 78 -1z m2677 -11 c-3 -3 -12 -4
-19 -1 -8 3 -5 6 6 6 11 1 17 -2 13 -5z m1120 0 c-3 -3 -12 -4 -19 -1 -8 3 -5
6 6 6 11 1 17 -2 13 -5z m21 -27 c13 4 14 3 6 -6 -13 -14 -47 -3 -37 12 5 8 8
8 10 0 3 -7 12 -9 21 -6z m81 -6 c11 -7 10 -10 -6 -15 -27 -9 -60 3 -41 15 17
11 29 11 47 0z m661 -42 c0 -16 -4 -29 -10 -29 -5 0 -10 -7 -10 -15 0 -8 5
-15 12 -15 8 0 9 -3 1 -11 -7 -7 -37 4 -102 37 -83 44 -118 73 -73 61 53 -15
72 -17 72 -7 0 7 5 8 13 3 6 -4 28 -8 48 -8 28 0 35 3 31 14 -3 9 -1 12 6 7 7
-4 12 -20 12 -37z m-1180 21 c0 -5 -7 -10 -15 -10 -8 0 -15 5 -15 10 0 6 7 10
15 10 8 0 15 -4 15 -10z m47 4 c-3 -3 -12 -4 -19 -1 -8 3 -5 6 6 6 11 1 17 -2
13 -5z m422 -10 c17 -4 28 -10 25 -15 -8 -14 -38 -11 -60 6 -21 16 -12 18 35
9z m-64 -24 c3 -5 1 -10 -4 -10 -6 0 -11 5 -11 10 0 6 2 10 4 10 3 0 8 -4 11
-10z m-2252 -20 c4 -16 0 -20 -16 -19 -12 0 -17 3 -10 5 7 3 9 12 6 20 -3 8
-1 14 5 14 5 0 12 -9 15 -20z m-833 -20 c-6 -11 -12 -20 -14 -20 -2 0 -2 9 1
20 3 11 9 20 15 20 5 0 4 -9 -2 -20z m-295 0 c4 -6 -6 -10 -22 -10 -22 0 -25
2 -13 10 19 12 27 12 35 0z m1142 -17 c-4 -3 -2 -12 4 -20 9 -10 7 -13 -10
-13 -11 0 -21 4 -21 8 0 9 21 32 29 32 2 0 1 -3 -2 -7z m-1653 -38 c20 -8 36
-17 36 -20 0 -4 -80 24 -89 32 -11 8 20 1 53 -12z m73 -1 c-3 -3 -12 -4 -19
-1 -8 3 -5 6 6 6 11 1 17 -2 13 -5z m4465 -21 c17 -15 18 -15 18 2 0 14 3 16
11 8 6 -6 17 -9 24 -7 11 5 29 -35 20 -44 -8 -8 -95 9 -90 18 3 5 1 11 -5 15
-11 7 -14 25 -3 25 3 0 15 -7 25 -17z m483 -23 c-3 -5 -10 -10 -16 -10 -5 0
-9 5 -9 10 0 6 7 10 16 10 8 0 12 -4 9 -10z m2152 -16 c-3 -3 -12 -4 -19 -1
-8 3 -5 6 6 6 11 1 17 -2 13 -5z m-5530 -30 c-3 -3 -12 -4 -19 -1 -8 3 -5 6 6
6 11 1 17 -2 13 -5z m3933 -14 c0 -5 -6 -10 -14 -10 -8 0 -18 5 -21 10 -3 6 3
10 14 10 12 0 21 -4 21 -10z m-5565 -30 c18 -7 19 -9 2 -15 -18 -8 -73 10 -83
27 -7 10 42 3 81 -12z m4803 -5 c-8 -8 -48 8 -42 16 3 5 14 4 25 -2 12 -6 19
-12 17 -14z m-3175 8 c-7 -2 -19 -2 -25 0 -7 3 -2 5 12 5 14 0 19 -2 13 -5z
m964 -39 c-3 -3 -12 -4 -19 -1 -8 3 -5 6 6 6 11 1 17 -2 13 -5z m3493 -24 c0
-9 -40 -30 -56 -30 -14 0 0 22 19 30 30 12 37 12 37 0z m420 -30 c0 -15 -27
-23 -47 -15 -17 7 -16 8 2 15 28 12 45 12 45 0z"/>
<path d="M390 6249 c0 -5 5 -7 10 -4 6 3 10 8 10 11 0 2 -4 4 -10 4 -5 0 -10
-5 -10 -11z"/>
<path d="M88 6233 c7 -3 16 -2 19 1 4 3 -2 6 -13 5 -11 0 -14 -3 -6 -6z"/>
<path d="M406 6203 c-6 -14 -5 -15 5 -6 7 7 10 15 7 18 -3 3 -9 -2 -12 -12z"/>
<path d="M125 6200 c-3 -5 -1 -10 4 -10 6 0 11 5 11 10 0 6 -2 10 -4 10 -3 0
-8 -4 -11 -10z"/>
<path d="M495 6090 c-3 -5 -1 -10 4 -10 6 0 11 5 11 10 0 6 -2 10 -4 10 -3 0
-8 -4 -11 -10z"/>
<path d="M1851 5784 c0 -11 3 -14 6 -6 3 7 2 16 -1 19 -3 4 -6 -2 -5 -13z"/>
<path d="M578 5783 c7 -3 16 -2 19 1 4 3 -2 6 -13 5 -11 0 -14 -3 -6 -6z"/>
<path d="M2895 5750 c-3 -5 -1 -10 4 -10 6 0 11 5 11 10 0 6 -2 10 -4 10 -3 0
-8 -4 -11 -10z"/>
<path d="M211 5693 c7 -12 15 -20 18 -17 3 2 -3 12 -13 22 -17 16 -18 16 -5
-5z"/>
<path d="M2861 5684 c0 -11 3 -14 6 -6 3 7 2 16 -1 19 -3 4 -6 -2 -5 -13z"/>
<path d="M2836 5663 c-6 -14 -5 -15 5 -6 7 7 10 15 7 18 -3 3 -9 -2 -12 -12z"/>
<path d="M4690 5675 c0 -7 30 -13 34 -7 3 4 -4 9 -15 9 -10 1 -19 0 -19 -2z"/>
<path d="M1040 5616 c0 -2 7 -7 16 -10 8 -3 12 -2 9 4 -6 10 -25 14 -25 6z"/>
<path d="M1088 5593 c7 -3 16 -2 19 1 4 3 -2 6 -13 5 -11 0 -14 -3 -6 -6z"/>
<path d="M2050 5566 c0 -2 7 -9 15 -16 13 -11 14 -10 9 4 -5 14 -24 23 -24 12z"/>
<path d="M3018 5493 c7 -3 16 -2 19 1 4 3 -2 6 -13 5 -11 0 -14 -3 -6 -6z"/>
<path d="M4888 5343 c7 -3 16 -2 19 1 4 3 -2 6 -13 5 -11 0 -14 -3 -6 -6z"/>
</g>
</svg>
