<?xml version="1.0" standalone="no"?>
<!DOCTYPE svg PUBLIC "-//W3C//DTD SVG 20010904//EN"
 "http://www.w3.org/TR/2001/REC-SVG-20010904/DTD/svg10.dtd">
<svg version="1.0" xmlns="http://www.w3.org/2000/svg"
 width="720.000000pt" height="360.000000pt" viewBox="0 0 720.000000 360.000000"
 preserveAspectRatio="xMidYMid meet">

<g transform="translate(0.000000,360.000000) scale(0.100000,-0.100000)"
fill="#000000" stroke="none">
<path d="M6797 3343 c-3 -5 -8 -30 -12 -58 -4 -27 -14 -66 -22 -85 -13 -32
-15 -33 -27 -17 -22 29 -29 19 -24 -39 4 -48 3 -54 -8 -39 -7 9 -17 14 -23 10
-19 -11 -12 -45 15 -80 51 -67 10 -98 -54 -41 -22 20 -42 36 -46 36 -3 0 -6
-12 -6 -26 0 -17 15 -41 45 -72 53 -53 55 -77 8 -78 -43 0 -46 -5 -35 -48 8
-29 7 -39 -5 -51 -22 -23 -48 -18 -62 12 l-13 28 -15 -29 c-20 -38 -11 -94 27
-175 50 -105 34 -120 -48 -46 -27 25 -55 45 -61 45 -20 0 -12 -50 19 -120 17
-38 30 -81 30 -95 0 -26 -2 -27 -40 -22 -42 5 -90 30 -90 47 0 5 10 10 22 12
34 5 35 36 2 40 -15 2 -33 13 -42 26 -14 22 -14 22 27 22 52 0 52 16 0 38 -36
16 -39 19 -25 31 20 17 21 41 2 41 -26 0 -28 21 -5 46 18 19 20 27 11 33 -8 4
-10 15 -6 26 6 15 4 17 -14 13 -15 -4 -22 -2 -22 8 0 8 5 14 10 14 6 0 10 7
10 15 0 8 -4 15 -9 15 -5 0 -8 18 -7 40 0 31 -4 43 -22 55 -28 21 -28 51 1 61
20 7 18 9 -13 14 -31 5 -35 8 -32 33 1 15 -2 27 -7 27 -5 0 -11 17 -13 37 -4
45 -25 55 -34 16 -4 -15 -11 -33 -16 -40 -5 -7 -6 -18 -2 -24 4 -7 -1 -18 -11
-25 -15 -11 -16 -16 -5 -29 9 -11 9 -19 2 -28 -6 -7 -9 -23 -5 -35 4 -17 1
-22 -15 -22 -16 0 -20 -6 -19 -27 2 -22 -3 -28 -32 -35 l-34 -9 34 -29 c19
-16 42 -29 51 -30 9 0 20 -4 23 -10 7 -11 -18 -14 -80 -10 l-40 2 19 -21 c11
-12 27 -21 38 -21 10 0 18 -7 18 -15 0 -9 -9 -15 -21 -15 -16 0 -20 -5 -16
-20 3 -13 0 -20 -9 -20 -17 0 -18 -16 -2 -26 7 -4 28 -11 48 -14 l35 -7 -30
-7 c-63 -16 -84 -28 -94 -57 -5 -16 -15 -29 -20 -29 -6 0 -11 -5 -11 -11 0 -8
14 -10 45 -6 45 7 45 6 45 -23 0 -30 21 -42 35 -20 3 6 10 10 16 10 37 0 -46
-85 -93 -96 -22 -4 -34 -16 -45 -41 -8 -19 -12 -38 -8 -41 3 -3 22 0 41 7 48
17 68 1 37 -31 -20 -19 -23 -20 -29 -5 -6 15 -8 15 -31 -3 -29 -22 -73 -27
-73 -7 0 7 7 23 16 35 16 24 12 42 -12 42 -19 0 -18 29 5 66 10 17 22 41 26
53 7 22 6 22 -25 6 -17 -9 -39 -15 -48 -13 -12 2 -8 10 18 36 l35 33 -29 23
c-26 22 -27 25 -13 47 8 13 18 40 22 59 l7 35 -31 -29 -31 -30 0 25 c1 13 7
35 15 49 20 35 18 41 -10 34 -27 -7 -35 12 -13 34 9 9 8 12 -5 12 -13 0 -17 9
-17 38 0 27 -3 33 -10 22 -5 -8 -10 -27 -10 -42 0 -14 -5 -28 -11 -30 -9 -3
-9 -14 1 -42 14 -45 7 -56 -20 -31 -24 22 -26 6 -5 -36 20 -37 12 -51 -20 -39
-32 12 -34 -10 -5 -47 28 -36 25 -43 -15 -43 -22 0 -35 -5 -35 -13 0 -9 -11
-12 -37 -9 l-37 5 42 -40 c45 -42 56 -83 24 -83 -11 0 -27 9 -37 20 -10 11
-27 20 -38 20 -19 0 -19 -1 -2 -20 13 -14 16 -28 11 -54 -5 -24 -2 -45 9 -66
17 -33 11 -38 -22 -15 -25 17 -41 4 -18 -15 27 -23 16 -31 -32 -25 l-48 7 36
-26 c56 -39 58 -71 7 -88 -6 -2 -4 -15 3 -31 17 -38 6 -43 -36 -17 -42 26 -54
21 -31 -12 9 -12 16 -37 16 -55 0 -17 7 -39 16 -47 14 -15 14 -16 -3 -16 -10
0 -37 9 -60 20 -49 22 -55 12 -18 -28 32 -34 29 -57 -8 -56 -15 1 -27 -3 -27
-8 0 -5 23 -30 50 -55 28 -25 50 -50 50 -54 0 -5 -20 -6 -45 -2 l-45 6 0 -47
c0 -26 5 -56 10 -67 10 -18 8 -19 -32 -13 l-42 7 22 -28 c25 -31 29 -55 9 -55
-19 0 -47 33 -56 66 -12 46 -26 24 -25 -38 1 -41 -3 -58 -12 -58 -7 0 -14 -15
-16 -36 l-3 -36 -27 22 -28 21 0 -36 c0 -20 9 -53 20 -75 31 -62 27 -75 -22
-77 -24 0 -49 4 -55 9 -24 19 -14 -43 13 -90 29 -50 27 -54 -38 -72 -41 -11
-45 -19 -26 -38 10 -10 10 -15 -2 -22 -39 -25 -249 -69 -327 -70 -30 0 -33 3
-33 30 0 34 -24 60 -80 85 -37 17 -39 19 -50 89 -21 129 -96 256 -209 354 -39
34 -68 69 -81 100 -12 26 -34 61 -50 77 -36 38 -73 119 -65 145 8 26 -13 100
-31 107 -8 3 -25 -4 -37 -15 -30 -28 -117 -24 -167 6 -65 40 -87 23 -54 -40
13 -26 14 -38 5 -70 -7 -21 -11 -61 -10 -88 2 -35 -2 -55 -14 -68 -9 -10 -17
-22 -17 -26 0 -14 27 -35 53 -42 33 -8 38 -24 35 -110 -2 -55 2 -78 19 -114
20 -41 22 -63 25 -230 l3 -185 -95 1 c-126 2 -196 18 -261 59 -109 70 -126 75
-247 74 l-110 -1 -31 32 c-28 30 -31 39 -31 94 0 78 28 190 74 291 20 44 36
92 36 108 0 15 11 60 25 99 14 39 25 84 25 99 0 16 15 47 36 75 33 43 35 50
29 93 -4 25 -7 83 -6 129 2 92 -6 100 -56 58 -24 -20 -40 -24 -88 -24 -53 0
-64 4 -92 30 -29 28 -32 29 -41 12 -5 -11 -15 -59 -21 -108 -12 -98 -21 -114
-82 -142 -37 -16 -49 -17 -123 -6 -229 33 -275 11 -351 -172 -52 -125 -65
-193 -65 -339 0 -140 -8 -169 -57 -206 l-28 -20 31 -1 c17 0 52 11 78 24 l48
24 -6 -21 c-3 -12 -6 -39 -6 -61 l0 -39 -68 7 c-82 8 -153 -6 -204 -39 -20
-14 -55 -29 -77 -34 -39 -8 -40 -8 -98 53 -146 150 -184 184 -203 178 -9 -3
-8 2 3 19 22 31 23 57 2 39 -13 -11 -15 -8 -15 20 0 32 0 33 -20 15 -27 -24
-26 -7 1 21 30 32 20 50 -14 24 -15 -12 -27 -17 -27 -11 0 5 6 14 14 18 7 4
19 19 26 32 7 15 8 21 1 17 -6 -4 -11 -3 -11 3 0 5 5 13 10 16 12 7 13 45 2
45 -5 0 -15 -11 -22 -25 -7 -14 -17 -25 -22 -25 -5 0 2 14 14 31 19 25 20 31
8 39 -9 6 -20 4 -29 -3 -12 -10 -13 -9 -6 8 4 11 10 34 12 50 4 27 3 28 -10
13 -20 -25 -28 -22 -21 6 5 21 3 24 -15 19 -20 -5 -21 -3 -11 21 14 39 13 51
-5 36 -18 -15 -18 -14 -6 28 9 30 0 44 -14 22 -3 -6 -10 -10 -16 -10 -5 0 -4
9 3 20 11 17 10 22 -1 29 -8 5 -12 18 -8 30 3 14 0 21 -9 21 -8 0 -11 6 -8 15
4 8 1 15 -5 15 -6 0 -11 11 -11 25 0 14 -4 25 -10 25 -5 0 -10 -7 -10 -16 0
-8 -6 -22 -14 -30 -8 -8 -12 -23 -8 -36 5 -21 4 -22 -11 -9 -20 16 -23 1 -5
-17 10 -10 10 -15 0 -21 -8 -5 -14 -12 -15 -17 -1 -5 -6 -8 -11 -6 -4 1 -5
-14 -1 -34 6 -32 5 -36 -8 -26 -8 7 -22 10 -31 6 -12 -5 -16 0 -16 18 0 14 -7
46 -17 73 -15 47 -17 48 -26 25 -5 -14 -13 -32 -17 -41 -5 -10 -4 -22 3 -29 8
-9 8 -11 1 -7 -7 4 -11 -3 -11 -19 0 -32 -14 -46 -33 -34 -13 9 -13 11 -1 19
12 8 12 12 2 25 -7 8 -14 27 -16 42 -1 15 -10 33 -19 40 -13 9 -14 13 -4 17 9
3 8 9 -7 21 -20 15 -20 15 3 16 31 0 27 17 -10 40 l-31 19 26 6 c33 9 34 19 5
39 -12 9 -16 16 -9 16 8 0 11 6 7 17 -4 9 -1 20 6 25 9 5 5 8 -11 8 -23 0 -24
1 -6 13 12 10 14 16 7 21 -7 4 -12 16 -12 27 0 10 -4 19 -8 19 -4 0 -14 20
-21 45 -15 53 -32 48 -52 -13 -6 -20 -16 -43 -22 -50 -5 -6 -7 -12 -3 -12 4 0
-1 -11 -10 -25 -9 -14 -14 -32 -10 -40 3 -8 1 -15 -5 -15 -6 0 -9 -7 -5 -15 3
-8 0 -15 -7 -15 -8 0 -7 -4 3 -10 13 -8 13 -11 1 -19 -8 -5 -10 -14 -6 -21 5
-9 4 -11 -4 -6 -6 4 -24 0 -38 -9 -26 -17 -26 -17 -18 6 4 13 9 45 9 71 1 26
7 53 14 59 6 7 12 17 12 21 0 15 -24 8 -62 -19 -27 -18 -42 -23 -49 -16 -15
15 4 50 49 91 l37 34 -42 -5 c-33 -4 -43 -2 -43 9 0 9 -12 14 -35 14 -19 0
-35 3 -35 6 0 3 11 19 25 36 23 27 33 58 19 58 -3 0 -14 -5 -25 -10 -33 -18
-40 -2 -18 42 23 44 19 60 -9 35 -10 -10 -21 -17 -25 -17 -5 0 4 37 18 73 5
12 2 17 -9 17 -12 0 -16 11 -17 43 -2 41 -2 42 -8 8 -4 -21 -13 -37 -25 -41
-14 -4 -16 -9 -8 -14 7 -4 12 -14 12 -23 0 -11 -6 -14 -25 -9 -25 6 -26 6 -12
-21 18 -36 30 -83 20 -83 -4 0 -20 12 -36 28 l-29 27 7 -35 c4 -19 13 -46 20
-60 12 -23 11 -27 -13 -47 l-27 -21 33 -34 c17 -19 32 -37 32 -40 0 -8 -60 11
-77 25 -21 16 -15 -14 12 -62 32 -55 31 -69 -1 -82 l-27 -10 22 -22 c11 -13
21 -31 21 -41 0 -15 -5 -17 -27 -12 -16 4 -40 16 -55 26 -15 11 -34 20 -42 20
-9 0 -30 13 -48 29 l-33 29 22 24 c30 31 15 58 -32 58 -41 0 -44 11 -10 34 34
22 32 33 -10 53 -46 22 -45 36 3 31 41 -6 92 15 92 36 0 10 -19 15 -65 18 -44
3 -73 10 -92 24 -40 30 -43 48 -6 41 25 -5 32 -2 41 18 13 29 7 35 -34 35 -23
0 -37 6 -44 20 -16 31 -4 40 51 40 63 0 62 19 -2 40 -59 19 -58 18 -25 47 23
20 26 27 15 34 -8 5 -21 9 -29 9 -8 0 -21 4 -29 9 -11 7 -10 14 8 39 25 36 26
42 6 42 -17 0 -20 16 -5 25 6 3 10 13 10 20 0 11 -8 13 -30 9 -35 -7 -41 9
-10 26 28 15 25 24 -15 43 -34 16 -47 48 -25 62 15 10 12 25 -6 25 -11 0 -14
6 -9 20 5 15 0 22 -18 29 -22 9 -37 29 -37 51 0 5 10 18 22 30 l22 20 -26 0
c-32 0 -59 29 -52 56 3 12 -1 26 -10 33 -9 8 -16 20 -16 27 0 7 -11 21 -25 30
-14 9 -25 22 -25 28 0 6 -7 22 -16 34 -15 22 -17 23 -36 6 -11 -11 -17 -26
-14 -37 3 -12 -5 -29 -20 -44 -14 -14 -23 -31 -20 -38 3 -8 -1 -19 -9 -25 -9
-7 -12 -22 -9 -39 5 -23 2 -29 -17 -34 -23 -6 -23 -6 -4 -27 19 -22 19 -22 0
-36 -10 -8 -27 -14 -36 -14 -23 0 -34 -19 -20 -33 6 -6 11 -20 11 -30 0 -14
-5 -18 -20 -14 -24 6 -37 -10 -21 -26 21 -21 11 -35 -38 -48 l-48 -12 43 -33
c24 -19 55 -36 69 -40 14 -3 25 -11 25 -16 0 -7 -26 -9 -70 -6 -38 3 -70 2
-70 -3 0 -15 33 -40 61 -46 38 -7 37 -30 -1 -38 -26 -6 -28 -9 -20 -26 9 -16
7 -19 -10 -19 -11 0 -20 -4 -20 -9 0 -19 45 -41 85 -42 32 0 36 -2 20 -9 -11
-5 -38 -14 -61 -20 -50 -12 -73 -36 -81 -85 l-6 -37 48 8 48 7 -6 -31 c-8 -39
1 -45 38 -26 15 8 30 12 33 10 9 -10 -8 -36 -24 -36 -9 0 -29 -9 -45 -21 -17
-12 -42 -24 -57 -28 -25 -7 -27 -11 -30 -70 -3 -58 -1 -63 15 -56 10 4 30 10
45 13 23 3 28 1 28 -17 0 -21 -44 -51 -75 -51 -10 0 -15 -9 -15 -29 0 -25 5
-31 30 -36 44 -10 45 -22 5 -39 l-35 -15 0 -980 0 -981 3600 0 3600 0 0 1141
c0 1014 -2 1140 -15 1129 -13 -10 -15 -9 -15 8 0 32 -17 36 -50 12 -17 -12
-30 -19 -30 -17 0 3 16 38 35 78 28 59 36 91 40 154 l6 80 -30 -57 c-17 -31
-35 -59 -40 -63 -21 -13 -22 63 -2 142 12 45 21 96 21 114 l0 33 -43 -42 c-40
-39 -101 -71 -114 -59 -3 3 4 18 15 32 22 28 62 125 62 150 0 12 -5 12 -26 4
-28 -10 -64 -4 -75 14 -4 5 2 28 12 51 21 49 35 126 23 126 -5 0 -17 -7 -27
-14 -22 -17 -57 -9 -57 12 0 9 10 40 22 69 24 59 19 78 -13 44 -20 -21 -23
-22 -38 -7 -12 13 -15 32 -13 77 3 72 -13 139 -33 139 -8 0 -16 -3 -18 -7z
m-709 -1215 c-5 -13 -56 -33 -65 -24 -3 3 -3 12 0 21 8 18 71 22 65 3z m-5244
-204 c3 -9 6 -24 6 -35 0 -16 -3 -18 -19 -9 -11 5 -33 10 -50 10 -24 0 -31 4
-31 19 0 22 13 29 56 30 20 1 34 -5 38 -15z m446 1 c-7 -9 -15 -13 -17 -11 -7
7 7 26 19 26 6 0 6 -6 -2 -15z m-430 -87 c0 -6 10 -22 22 -35 12 -13 19 -26
16 -29 -8 -7 -61 20 -78 41 -12 14 -12 18 1 26 20 12 39 11 39 -3z m799 -140
c1 -5 -6 -8 -15 -8 -8 0 -13 4 -9 9 3 5 0 13 -6 17 -8 4 -7 9 2 15 13 8 26 -8
28 -33z m-100 3 c7 -5 9 -11 5 -14 -5 -3 -15 1 -22 9 -14 16 -5 18 17 5z
m1640 -427 c1 -56 -2 -116 -5 -133 -6 -29 -10 -31 -48 -31 -30 0 -44 5 -53 20
-22 34 -24 148 -6 250 l18 95 40 5 40 5 6 -55 c4 -30 7 -101 8 -156z m-213
144 c1 -35 5 -114 9 -177 l8 -113 -34 7 c-19 4 -54 9 -79 10 -25 1 -48 3 -52
4 -3 0 -9 28 -13 61 l-7 60 47 52 c27 29 64 77 83 106 19 28 35 52 36 52 1 0
1 -28 2 -62z m-222 -99 c-15 -34 -16 -47 -6 -90 19 -82 17 -99 -16 -99 -39 0
-52 17 -52 66 0 54 13 88 53 140 37 49 47 40 21 -17z m1394 -204 c0 -27 -5
-68 -13 -90 l-13 -40 -1 80 c0 44 2 98 6 120 l7 40 7 -30 c4 -16 7 -52 7 -80z
m132 -60 c12 -36 27 -65 33 -65 7 0 6 -6 -3 -14 -12 -12 -24 -13 -61 -5 l-45
10 20 73 c12 41 24 72 28 70 3 -2 16 -33 28 -69z"/>
</g>
</svg>
